<svg xmlns="http://www.w3.org/2000/svg" width="810" viewBox="0 0 810 810" height="810" version="1.0"><defs><clipPath id="a"><path d="M 146.054688 71.394531 L 664.304688 71.394531 L 664.304688 729.082031 L 146.054688 729.082031 Z M 146.054688 71.394531"/></clipPath><clipPath id="b"><path d="M 359 347 L 420.457031 347 L 420.457031 408.667969 L 359 408.667969 Z M 359 347"/></clipPath><clipPath id="c"><path d="M 327.480469 339.667969 L 360 339.667969 L 360 403 L 327.480469 403 Z M 327.480469 339.667969"/></clipPath></defs><g clip-path="url(#a)"><path fill="#39B54A" d="M 648.507812 526.492188 C 643.847656 545.953125 636.320312 564.984375 626.722656 583.109375 C 617.074219 601.230469 604.820312 618.183594 590.726562 633.585938 C 562.324219 664.214844 525.570312 687.871094 485.289062 700.488281 C 465.1875 706.84375 444.234375 710.429688 423.347656 711.433594 L 415.636719 711.609375 L 411.769531 711.679688 L 407.710938 711.566406 L 399.605469 711.339844 L 392.019531 710.742188 C 386.8125 710.460938 381.679688 709.609375 376.535156 708.984375 C 373.957031 708.695312 371.429688 708.097656 368.878906 707.671875 C 366.34375 707.175781 363.777344 706.835938 361.273438 706.207031 C 320.90625 697.496094 283.765625 678.414062 254.414062 652.617188 C 246.949219 646.304688 240.207031 639.324219 233.671875 632.316406 C 227.363281 625.109375 221.292969 617.800781 215.964844 610.078125 C 205.167969 594.753906 196.261719 578.601562 189.667969 562.0625 C 183.007812 545.550781 178.378906 528.789062 175.617188 512.324219 C 174.800781 508.222656 174.410156 504.09375 173.882812 500.027344 C 173.28125 495.964844 173.152344 491.894531 172.8125 487.886719 C 172.417969 483.824219 172.523438 480.019531 172.382812 476.160156 C 172.1875 472.472656 172.457031 468.113281 172.535156 464.097656 C 173.144531 448.84375 175.160156 433.96875 178.195312 420.289062 C 181.300781 406.570312 185.59375 393.917969 190.289062 382.339844 C 194.964844 370.730469 200.625 360.453125 206.007812 351.097656 C 211.746094 341.9375 217.296875 333.703125 222.945312 326.75 C 234.042969 312.757812 244.371094 302.769531 251.148438 296.757812 C 252.742188 295.210938 254.597656 293.75 256.078125 292.511719 C 257.507812 291.332031 258.707031 290.339844 259.699219 289.515625 C 314.242188 282.699219 369.300781 263.246094 401.730469 237.339844 C 408.378906 232.027344 414.746094 226.207031 420.835938 220.035156 C 421.476562 220.085938 422.585938 220.171875 424.148438 220.292969 C 426.773438 220.566406 430.695312 220.671875 435.75 221.351562 C 445.875 222.472656 460.710938 224.855469 478.941406 230.242188 C 481.234375 230.859375 483.554688 231.617188 485.910156 232.457031 C 488.277344 233.265625 490.699219 234.09375 493.183594 234.945312 C 495.640625 235.851562 498.117188 236.894531 500.667969 237.898438 C 503.222656 238.898438 505.828125 239.929688 508.40625 241.167969 C 518.914062 245.683594 529.78125 251.652344 540.945312 258.664062 C 563.246094 272.707031 586.039062 292.523438 605.613281 318.292969 C 615.386719 331.171875 624.296875 345.539062 631.820312 361.214844 C 639.308594 376.914062 645.324219 393.945312 649.449219 411.902344 C 653.578125 429.816406 655.8125 448.859375 655.769531 467.96875 C 655.625 487.484375 653.269531 507.023438 648.507812 526.492188 Z M 664.328125 468.109375 C 663.933594 447.933594 661.175781 428.632812 656.515625 410.195312 C 651.847656 391.800781 645.273438 374.460938 637.25 358.554688 C 629.179688 342.667969 619.738281 328.199219 609.484375 315.296875 C 588.9375 289.472656 565.34375 269.910156 542.472656 256.207031 C 531.027344 249.371094 519.921875 243.597656 509.222656 239.28125 C 506.589844 238.09375 503.945312 237.113281 501.347656 236.160156 C 498.753906 235.207031 496.242188 234.21875 493.746094 233.355469 C 491.226562 232.5625 488.773438 231.777344 486.375 231.015625 C 483.980469 230.226562 481.636719 229.519531 479.3125 228.953125 C 460.863281 223.949219 445.953125 221.898438 435.789062 221 C 430.710938 220.433594 426.785156 220.417969 424.15625 220.207031 C 422.59375 220.117188 421.492188 220.054688 420.84375 220.019531 C 478.324219 161.683594 510.222656 71.386719 510.222656 71.386719 C 366.378906 168.742188 223.832031 96.90625 205.265625 274.335938 C 222.203125 242.953125 269.867188 182.996094 392.15625 163.878906 C 392.15625 163.878906 286.019531 204.53125 240.941406 264.441406 C 240.570312 264.761719 240.140625 265.132812 239.65625 265.554688 C 238.660156 266.417969 237.421875 267.492188 235.949219 268.765625 C 234.472656 270.058594 232.808594 271.417969 230.753906 273.4375 C 228.746094 275.367188 226.496094 277.519531 224.023438 279.886719 C 221.511719 282.25 219.1875 284.9375 216.453125 287.789062 C 213.707031 290.597656 210.984375 293.816406 208.101562 297.265625 C 206.65625 298.988281 205.121094 300.730469 203.640625 302.597656 C 202.191406 304.496094 200.707031 306.453125 199.175781 308.464844 C 193 316.445312 186.933594 325.851562 180.742188 336.300781 C 174.902344 346.949219 168.84375 358.640625 163.878906 371.773438 C 158.894531 384.875 154.425781 399.144531 151.304688 414.542969 C 148.253906 429.988281 146.386719 446.265625 146.09375 463.648438 C 145.507812 497.730469 151.90625 535.363281 167.464844 571.363281 C 175.148438 589.410156 185.320312 606.925781 197.515625 623.4375 C 203.550781 631.742188 210.351562 639.601562 217.421875 647.304688 C 224.722656 654.792969 232.25 662.222656 240.523438 668.929688 C 273.117188 696.285156 313.875 716.027344 357.566406 724.417969 C 360.28125 725.023438 363.054688 725.347656 365.792969 725.820312 C 368.550781 726.214844 371.28125 726.777344 374.058594 727.035156 C 379.601562 727.59375 385.136719 728.363281 390.722656 728.554688 L 399.304688 729.011719 L 407.414062 729.058594 L 411.472656 729.082031 L 415.726562 728.917969 L 424.265625 728.539062 C 446.664062 726.964844 468.914062 722.621094 490.179688 715.367188 C 532.777344 700.96875 571.046875 675.007812 600.179688 642.132812 C 614.648438 625.605469 627.082031 607.527344 636.753906 588.339844 C 646.375 569.152344 653.765625 549.113281 658.160156 528.761719 C 662.664062 508.488281 664.640625 487.871094 664.328125 468.109375"/></g><g fill="#343434"><g><g><path d="M 27.4375 -35.109375 C 27.878906 -36.585938 28.46875 -37.910156 29.355469 -39.238281 L 28.617188 -38.058594 C 30.832031 -43.371094 32.75 -48.679688 34.222656 -54.136719 C 36.289062 -61.660156 39.828125 -68.742188 41.894531 -76.265625 C 43.8125 -83.496094 46.910156 -90.574219 44.699219 -97.804688 C 43.664062 -101.492188 43.222656 -105.179688 39.976562 -107.835938 C 36.289062 -110.785156 31.714844 -110.34375 27.4375 -109.015625 C 20.355469 -106.800781 13.867188 -101.933594 9.589844 -95.738281 C 8.554688 -94.261719 8.554688 -92.933594 7.964844 -91.609375 C 7.375 -90.425781 6.492188 -89.691406 5.902344 -88.65625 C 3.984375 -85.265625 2.804688 -81.722656 2.804688 -77.890625 C 2.65625 -74.9375 2.949219 -70.070312 5.902344 -68.449219 C 7.523438 -67.5625 9 -67.859375 9.882812 -69.332031 C 10.472656 -70.511719 9.734375 -71.546875 9.734375 -71.839844 C 9.882812 -73.316406 10.621094 -74.9375 11.210938 -76.265625 C 12.242188 -79.214844 13.570312 -82.167969 15.195312 -84.96875 C 18.292969 -90.722656 22.273438 -97.359375 28.175781 -100.902344 C 29.652344 -101.785156 33.042969 -103.554688 34.8125 -102.230469 C 37.027344 -100.457031 34.960938 -94.558594 34.371094 -92.34375 C 29.796875 -74.644531 20.0625 -58.5625 14.457031 -41.15625 C 11.949219 -33.484375 7.671875 -26.40625 5.015625 -18.734375 C 2.804688 -12.6875 -0.296875 -5.3125 0 1.179688 C 0.296875 6.046875 5.753906 11.800781 10.324219 7.375 C 12.242188 5.753906 12.539062 2.210938 13.425781 0 C 15.046875 -3.984375 16.523438 -7.375 18.734375 -10.917969 C 23.898438 -19.914062 29.796875 -28.324219 35.109375 -37.175781 C 36.140625 -38.648438 36.730469 -40.863281 38.058594 -42.191406 C 39.09375 -43.074219 40.417969 -43.960938 41.453125 -45.433594 C 44.550781 -49.417969 47.5 -53.695312 50.449219 -57.828125 C 56.203125 -65.941406 62.546875 -73.757812 69.183594 -81.132812 C 71.988281 -84.378906 74.9375 -88.066406 78.773438 -90.132812 C 79.214844 -90.425781 80.398438 -91.3125 81.132812 -91.164062 C 82.3125 -90.722656 81.871094 -88.066406 82.019531 -87.917969 C 82.3125 -87.917969 82.460938 -90.425781 82.460938 -90.574219 C 83.199219 -87.917969 80.988281 -83.789062 80.101562 -81.28125 C 79.953125 -81.429688 80.691406 -83.640625 80.691406 -83.640625 C 79.804688 -83.640625 74.9375 -72.28125 74.199219 -71.101562 C 71.691406 -66.085938 69.183594 -61.21875 67.121094 -56.054688 C 65.054688 -50.894531 62.546875 -46.023438 60.039062 -41.007812 L 56.054688 -33.042969 C 55.320312 -31.273438 53.105469 -27.734375 53.253906 -25.816406 C 53.402344 -25.667969 53.402344 -25.667969 53.546875 -25.816406 L 52.074219 -22.128906 C 52.074219 -22.128906 52.664062 -24.339844 52.8125 -24.78125 C 52.074219 -24.046875 51.628906 -21.390625 51.628906 -21.242188 C 48.976562 -15.046875 45.730469 -9.144531 44.109375 -2.507812 C 42.484375 5.015625 42.632812 12.832031 45.289062 20.0625 C 47.351562 25.964844 51.484375 33.339844 57.828125 35.402344 C 64.023438 37.46875 71.398438 33.632812 75.675781 29.355469 C 76.414062 28.46875 81.578125 22.71875 78.480469 22.421875 C 77.152344 22.273438 74.347656 24.046875 73.019531 24.488281 C 70.957031 25.078125 69.039062 25.816406 66.824219 26.109375 C 61.808594 26.554688 54.285156 26.699219 54.136719 20.0625 C 54.136719 12.539062 57.828125 4.574219 60.480469 -2.066406 C 64.023438 -11.0625 68.003906 -19.765625 71.988281 -28.46875 C 73.757812 -32.160156 75.382812 -35.992188 77.003906 -39.535156 C 77.445312 -40.566406 81.429688 -50.15625 81.578125 -50.15625 C 81.28125 -50.15625 80.988281 -49.714844 80.542969 -49.121094 C 86.738281 -61.21875 98.246094 -76.414062 93.820312 -90.722656 C 93.671875 -90.871094 93.671875 -91.019531 93.527344 -91.460938 L 93.527344 -91.753906 C 86.886719 -109.605469 69.628906 -91.460938 62.84375 -84.085938 C 51.039062 -70.957031 40.714844 -56.5 30.976562 -41.746094 L 36.289062 -48.976562 L 40.125 -54.285156 C 35.699219 -47.941406 31.570312 -41.453125 27.4375 -35.109375 Z M 76.414062 -67.5625 L 82.167969 -79.511719 C 82.460938 -80.25 84.675781 -85.117188 85.410156 -88.511719 L 85.410156 -88.214844 C 85.265625 -87.476562 85.265625 -87.625 85.410156 -87.917969 C 83.496094 -79.214844 79.953125 -70.808594 75.824219 -63.136719 C 72.429688 -56.792969 68.449219 -51.039062 65.203125 -44.699219 Z M 16.816406 -41.746094 L 16.816406 -41.601562 C 14.898438 -35.257812 11.800781 -28.914062 9 -22.863281 C 7.082031 -18.734375 5.605469 -14.457031 4.277344 -10.179688 C 3.6875 -8.261719 3.097656 -6.195312 2.804688 -4.277344 C 2.507812 -2.507812 2.804688 -0.441406 2.210938 1.03125 C 2.359375 0.148438 1.917969 -2.066406 2.066406 -3.097656 C 2.359375 -5.3125 2.804688 -7.523438 3.394531 -9.589844 C 4.71875 -14.308594 6.34375 -18.882812 8.261719 -23.457031 C 11.210938 -30.09375 14.898438 -36.878906 17.40625 -43.515625 Z M 18.441406 -45.730469 C 18.144531 -45.878906 18.144531 -46.320312 18.734375 -47.058594 C 19.175781 -46.910156 19.175781 -46.46875 18.441406 -45.730469 Z M 62.84375 -83.347656 C 61.070312 -81.429688 59.449219 -79.511719 57.828125 -77.59375 C 59.449219 -79.660156 61.070312 -81.578125 62.84375 -83.347656 Z M 30.386719 -40.714844 L 29.796875 -39.828125 C 29.945312 -40.125 30.09375 -40.417969 30.386719 -40.714844 Z M 54.730469 -73.757812 L 55.171875 -74.347656 L 54.582031 -73.464844 C 54.582031 -73.609375 54.582031 -73.609375 54.730469 -73.757812 Z M 85.410156 -88.511719 C 85.410156 -88.804688 85.558594 -88.953125 85.558594 -89.101562 C 85.558594 -88.953125 85.410156 -88.65625 85.410156 -88.511719 Z M 56.941406 -76.414062 L 57.828125 -77.59375 Z M 93.820312 -90.722656 C 93.671875 -90.871094 93.671875 -91.019531 93.671875 -91.164062 Z M 18.441406 -45.730469 L 18.585938 -45.878906 C 18.585938 -45.878906 18.441406 -45.878906 18.441406 -45.730469 Z M 54.730469 -73.757812 C 54.730469 -73.757812 54.730469 -73.609375 54.582031 -73.609375 C 54.582031 -73.609375 54.730469 -73.609375 54.730469 -73.757812 Z M 29.796875 -39.828125 L 29.355469 -39.238281 Z M 29.796875 -39.828125" transform="translate(26.68 466.759)"/></g></g></g><g fill="#343434"><g><g><path d="M 75.085938 -35.550781 C 74.9375 -38.796875 72.28125 -35.992188 71.398438 -34.8125 C 69.480469 -32.011719 67.710938 -29.0625 65.941406 -26.257812 C 61.957031 -20.210938 57.972656 -14.160156 53.402344 -8.410156 C 38.207031 10.324219 48.828125 -23.011719 47.648438 -22.71875 C 47.058594 -22.570312 46.617188 -20.355469 46.46875 -19.914062 C 47.648438 -25.226562 49.859375 -31.570312 52.664062 -36.730469 C 54.285156 -39.976562 56.203125 -42.632812 53.253906 -46.171875 C 47.796875 -52.8125 41.453125 -46.761719 37.910156 -42.191406 C 36.4375 -47.796875 33.484375 -56.054688 26.257812 -56.054688 C 23.011719 -56.054688 21.09375 -54.433594 18.882812 -52.515625 C 17.554688 -51.628906 16.523438 -51.484375 15.339844 -50.449219 C 13.425781 -49.121094 12.097656 -47.058594 10.769531 -45.289062 C 5.753906 -37.910156 2.210938 -28.617188 0.589844 -20.0625 C -0.148438 -15.933594 -0.441406 -11.359375 0.738281 -7.226562 C 1.476562 -4.867188 4.128906 0.441406 7.523438 0 C 7.671875 0 7.375 -0.148438 6.933594 -0.441406 C 9 0.148438 11.359375 -0.148438 13.128906 -1.328125 C 13.277344 -1.03125 11.507812 -0.296875 11.507812 -0.296875 C 13.128906 2.210938 25.226562 -12.390625 26.109375 -13.71875 C 28.027344 -16.375 29.355469 -19.175781 31.125 -21.980469 C 32.453125 -24.046875 34.519531 -26.699219 35.992188 -28.914062 C 35.847656 -27.878906 35.847656 -26.554688 35.847656 -26.554688 C 33.191406 -18.144531 30.683594 -9 34.222656 -0.296875 C 35.847656 4.128906 39.828125 8.261719 44.84375 7.375 C 49.269531 6.636719 52.957031 2.359375 55.613281 -1.03125 C 58.859375 -4.867188 61.660156 -9.144531 64.464844 -13.570312 C 66.824219 -17.554688 69.039062 -21.539062 70.957031 -25.964844 C 72.136719 -28.765625 75.382812 -32.160156 75.085938 -35.550781 Z M 32.75 -34.519531 C 32.011719 -33.484375 31.273438 -32.453125 30.683594 -31.421875 L 26.847656 -25.964844 C 24.339844 -22.273438 21.683594 -18.734375 18.882812 -15.339844 C 18.144531 -14.308594 14.605469 -9.734375 13.128906 -10.179688 C 10.917969 -10.917969 13.277344 -18.585938 13.570312 -19.765625 C 14.015625 -21.832031 21.832031 -44.550781 23.898438 -44.992188 C 21.242188 -45.140625 12.6875 -18.441406 12.242188 -16.226562 C 13.425781 -23.457031 16.078125 -30.535156 19.03125 -37.175781 C 20.652344 -40.566406 24.339844 -49.566406 29.207031 -49.566406 C 31.863281 -49.566406 32.453125 -44.109375 32.894531 -42.335938 C 32.75 -42.632812 31.421875 -46.910156 31.273438 -46.761719 C 30.535156 -46.171875 33.484375 -38.058594 33.484375 -36.878906 C 33.484375 -35.699219 33.484375 -35.699219 32.75 -34.519531 Z M 36.140625 -27.289062 C 36.140625 -27.289062 36.585938 -29.355469 36.730469 -29.796875 L 37.46875 -30.832031 Z M 33.929688 -36.4375 L 33.929688 -37.910156 C 34.371094 -37.320312 34.371094 -36.878906 33.929688 -36.4375 Z M 33.929688 -36.4375" transform="translate(111.337 466.759)"/></g></g></g><g fill="#343434"><g><g><path d="M 59.890625 -76.707031 C 59.746094 -78.773438 57.53125 -77.152344 56.351562 -77.152344 C 50.449219 -76.855469 44.550781 -76.855469 38.796875 -76.5625 C 38.796875 -76.707031 39.09375 -77.296875 39.535156 -78.183594 C 38.945312 -77.152344 38.5 -76.5625 38.058594 -76.5625 C 42.484375 -85.558594 47.207031 -94.558594 52.8125 -102.820312 C 52.664062 -102.523438 50.449219 -98.835938 50.597656 -98.835938 C 51.039062 -98.6875 56.5 -106.210938 56.644531 -107.246094 C 56.644531 -107.835938 55.320312 -106.359375 55.320312 -106.507812 C 56.203125 -107.390625 57.679688 -108.128906 58.121094 -109.308594 C 59.152344 -112.261719 56.054688 -113.585938 53.84375 -114.03125 C 49.269531 -114.914062 44.109375 -114.324219 41.15625 -110.488281 C 38.355469 -107.097656 36.289062 -103.113281 34.519531 -99.132812 C 33.632812 -97.359375 32.453125 -96.917969 31.273438 -95.296875 C 29.503906 -92.789062 28.324219 -89.835938 26.996094 -87.035156 C 25.816406 -84.527344 24.636719 -81.871094 23.601562 -79.214844 C 23.011719 -77.890625 23.011719 -76.855469 21.683594 -76.414062 C 20.355469 -75.824219 17.847656 -76.265625 16.375 -76.117188 C 10.621094 -75.382812 5.015625 -75.675781 -0.738281 -75.085938 C -3.6875 -74.9375 -6.636719 -74.9375 -9.441406 -73.90625 C -10.03125 -73.757812 -13.277344 -73.019531 -13.570312 -72.578125 C -14.457031 -70.957031 -10.917969 -70.808594 -10.179688 -70.660156 C -4.574219 -69.921875 2.507812 -69.332031 8.113281 -70.367188 C 11.949219 -71.101562 15.933594 -70.808594 20.0625 -71.101562 C 17.996094 -66.675781 16.375 -61.957031 14.75 -57.238281 L 12.980469 -52.074219 C 12.390625 -50.449219 10.472656 -47.351562 10.472656 -45.582031 C 10.472656 -45.289062 10.917969 -46.023438 11.210938 -46.761719 C 10.472656 -44.550781 9.589844 -42.335938 9 -40.125 C 9 -40.273438 9.441406 -42.042969 9.292969 -42.042969 C 8.554688 -42.042969 5.605469 -33.042969 5.3125 -32.304688 C 3.835938 -27.878906 2.210938 -23.457031 1.476562 -18.734375 C 0.589844 -14.015625 -0.589844 -9.441406 -1.621094 -4.867188 C -2.210938 -2.507812 -2.804688 -0.296875 -3.097656 2.066406 C -3.394531 3.246094 -3.6875 4.574219 -3.6875 5.753906 C -3.6875 6.046875 -3.6875 7.964844 -3.394531 7.375 L -3.6875 10.324219 L -3.6875 8.113281 C -4.574219 9.144531 -3.6875 13.867188 -3.539062 14.75 C -2.949219 17.703125 -1.476562 20.355469 1.179688 22.128906 C 3.539062 23.898438 7.226562 25.519531 10.03125 24.191406 C 13.71875 22.421875 16.816406 18.292969 19.175781 15.339844 C 24.339844 9.292969 29.0625 2.949219 33.78125 -3.394531 C 38.058594 -9.292969 42.484375 -15.046875 46.171875 -21.242188 C 48.238281 -24.78125 52.222656 -28.027344 53.546875 -32.011719 C 54.285156 -33.929688 53.84375 -36.289062 51.484375 -35.847656 C 49.566406 -35.402344 46.910156 -30.242188 45.730469 -28.765625 C 40.417969 -22.128906 35.402344 -15.339844 30.09375 -8.703125 L 21.539062 1.769531 C 20.210938 3.246094 18.882812 4.867188 17.40625 6.34375 C 16.816406 7.082031 13.128906 10.03125 13.277344 10.917969 C 13.277344 11.210938 14.898438 9.882812 15.488281 9.441406 C 14.75 10.324219 13.867188 11.0625 13.128906 11.800781 C 13.277344 11.652344 10.179688 13.425781 9.734375 13.128906 C 6.933594 11.949219 9.441406 3.394531 9.882812 1.328125 C 12.539062 -10.621094 16.523438 -22.71875 20.503906 -34.222656 C 22.863281 -40.566406 25.226562 -46.617188 27.878906 -52.8125 C 29.207031 -55.910156 30.535156 -59.152344 32.011719 -62.253906 L 34.078125 -67.859375 L 32.453125 -64.613281 C 33.484375 -67.265625 34.960938 -71.25 35.847656 -71.398438 L 35.402344 -70.511719 C 35.699219 -70.957031 35.992188 -71.25 36.289062 -71.398438 C 37.910156 -72.429688 42.042969 -71.398438 43.960938 -71.398438 C 45.289062 -71.398438 46.910156 -71.25 48.238281 -71.691406 C 49.121094 -71.988281 48.828125 -72.429688 49.859375 -72.726562 C 51.628906 -73.019531 53.84375 -71.839844 55.761719 -72.429688 C 57.53125 -72.875 60.039062 -74.496094 59.890625 -76.5625 Z M 31.863281 -68.152344 C 25.226562 -54.136719 20.210938 -39.09375 14.898438 -24.488281 C 12.390625 -17.847656 10.03125 -10.917969 8.410156 -3.984375 L 7.671875 -1.179688 C 8.703125 -6.492188 9.882812 -11.652344 11.359375 -16.816406 C 14.605469 -28.175781 18.734375 -39.386719 23.601562 -50.15625 C 31.863281 -68.59375 39.238281 -88.363281 51.039062 -105.03125 C 43.074219 -93.671875 37.765625 -80.691406 31.863281 -68.152344 Z M 41.601562 -82.757812 L 45.140625 -89.542969 C 44.402344 -89.394531 43.074219 -86.148438 41.601562 -82.757812 Z M 26.40625 -50.597656 C 25.371094 -47.796875 24.191406 -45.140625 23.011719 -42.484375 C 24.191406 -45.289062 25.226562 -48.238281 26.554688 -51.1875 C 26.40625 -50.894531 26.40625 -50.746094 26.40625 -50.597656 Z M 39.683594 -78.480469 L 41.15625 -81.722656 C 40.714844 -80.542969 40.125 -79.363281 39.683594 -78.480469 Z M 7.523438 14.457031 C 7.375 14.457031 7.226562 14.308594 7.082031 14.160156 Z M 7.523438 14.457031" transform="translate(175.642 466.759)"/></g></g></g><g fill="#343434"><g><g><path d="M 69.773438 -35.992188 C 69.332031 -38.796875 62.546875 -30.976562 62.253906 -30.683594 C 57.972656 -26.109375 53.84375 -21.09375 48.828125 -17.113281 C 46.46875 -15.339844 45.433594 -14.308594 45.582031 -17.847656 C 45.730469 -20.949219 46.910156 -24.191406 47.796875 -26.996094 C 48.238281 -28.46875 51.1875 -34.078125 50.304688 -35.109375 C 50.15625 -35.257812 49.859375 -34.8125 49.566406 -34.519531 C 51.628906 -38.648438 56.644531 -45.730469 50.007812 -47.648438 C 42.484375 -49.714844 38.648438 -41.601562 35.402344 -36.730469 C 32.304688 -32.304688 29.355469 -28.027344 25.816406 -24.046875 C 23.160156 -20.949219 19.03125 -15.046875 14.75 -13.867188 C 10.769531 -12.539062 13.425781 -19.03125 14.015625 -21.242188 C 14.457031 -22.421875 19.765625 -36.140625 20.0625 -35.992188 C 19.765625 -35.992188 19.472656 -35.847656 19.175781 -35.402344 C 20.800781 -38.945312 22.570312 -42.484375 24.488281 -45.878906 C 24.046875 -44.992188 23.601562 -43.515625 23.601562 -43.515625 C 24.339844 -43.371094 27.878906 -50.597656 27.585938 -50.597656 C 27.289062 -50.449219 26.996094 -50.15625 26.699219 -49.714844 C 27.878906 -51.777344 29.355469 -52.8125 26.699219 -54.875 C 24.046875 -56.941406 19.324219 -57.382812 16.667969 -55.023438 C 13.425781 -52.367188 11.359375 -47.648438 9.734375 -43.960938 C 8.703125 -41.894531 6.933594 -40.714844 5.902344 -38.355469 C 3.835938 -33.78125 2.65625 -29.207031 1.476562 -24.488281 C 0.296875 -19.914062 -0.441406 -15.195312 0.296875 -10.472656 C 0.738281 -8.410156 1.476562 -6.046875 3.097656 -4.574219 C 3.539062 -4.277344 7.820312 -2.65625 7.523438 -3.6875 C 7.226562 -3.6875 6.933594 -3.6875 6.785156 -3.835938 C 8.410156 -3.835938 10.03125 -4.574219 11.507812 -5.457031 C 11.652344 -5.3125 10.324219 -4.71875 10.324219 -4.574219 C 11.800781 -2.65625 23.011719 -14.015625 24.046875 -15.339844 C 27.734375 -20.0625 31.421875 -24.636719 35.257812 -29.207031 C 33.339844 -24.046875 30.09375 -16.964844 33.191406 -11.359375 C 34.960938 -8.410156 38.355469 -6.785156 41.601562 -7.082031 C 48.53125 -7.523438 54.730469 -15.046875 59.007812 -19.621094 C 61.808594 -22.71875 64.613281 -25.964844 66.675781 -29.503906 C 67.5625 -30.976562 69.921875 -34.222656 69.773438 -35.992188 Z M 47.351562 -33.042969 C 47.058594 -32.160156 46.910156 -30.976562 46.46875 -30.242188 C 46.46875 -30.09375 46.320312 -29.945312 46.171875 -29.796875 C 46.320312 -29.945312 46.320312 -30.09375 46.320312 -30.242188 C 45.140625 -33.929688 49.566406 -38.648438 51.039062 -42.335938 C 49.859375 -39.09375 48.386719 -36.140625 47.351562 -33.042969 Z M 12.242188 -14.015625 C 11.359375 -18.292969 14.457031 -24.191406 16.078125 -28.175781 C 14.015625 -22.421875 11.949219 -15.339844 12.242188 -14.015625 Z M 35.257812 -28.46875 C 35.257812 -29.0625 35.402344 -29.503906 35.847656 -29.796875 C 35.550781 -29.355469 35.402344 -28.914062 35.257812 -28.46875 Z M 35.257812 -28.46875" transform="translate(220.92 466.759)"/></g></g></g><g fill="#343434"><g><g><path d="M 60.480469 -35.847656 C 59.597656 -39.683594 56.054688 -34.519531 55.320312 -33.632812 L 47.207031 -22.71875 L 39.238281 -12.242188 L 34.960938 -6.785156 C 34.519531 -6.195312 31.273438 -2.066406 31.570312 -2.066406 C 31.863281 -2.359375 32.304688 -2.359375 32.75 -2.804688 C 30.535156 -0.441406 22.421875 6.933594 20.949219 5.164062 C 19.765625 3.6875 23.011719 -2.507812 23.457031 -3.984375 C 25.078125 -8.261719 26.554688 -12.6875 28.324219 -16.816406 C 30.242188 -21.09375 32.453125 -25.371094 34.222656 -29.652344 C 35.992188 -34.222656 33.339844 -35.847656 29.0625 -36.878906 C 27.144531 -37.320312 24.78125 -37.320312 22.570312 -37.617188 C 22.570312 -37.46875 22.71875 -37.46875 22.71875 -37.46875 C 24.636719 -37.175781 27.4375 -37.027344 29.796875 -36.289062 C 26.257812 -37.320312 21.832031 -36.878906 19.03125 -37.617188 C 17.113281 -38.058594 15.933594 -38.058594 16.226562 -40.273438 C 16.523438 -43.222656 19.621094 -46.320312 20.652344 -49.121094 C 20.652344 -48.976562 19.621094 -46.320312 19.765625 -46.320312 C 20.503906 -46.023438 21.683594 -50.15625 21.683594 -50.746094 C 21.539062 -51.484375 19.765625 -53.695312 19.621094 -52.8125 L 19.914062 -52.367188 C 12.832031 -57.238281 4.425781 -47.207031 5.902344 -39.976562 C 6.195312 -38.945312 6.785156 -38.355469 7.226562 -37.175781 C 7.523438 -36.289062 7.226562 -35.257812 8.113281 -34.078125 C 11.210938 -30.242188 16.816406 -30.09375 21.242188 -30.976562 C 20.503906 -29.945312 12.6875 -13.425781 13.128906 -13.277344 L 12.097656 -9.589844 C 11.949219 -9.734375 12.539062 -10.917969 12.242188 -10.917969 C 11.210938 -11.0625 9.144531 -2.507812 9 -1.769531 C 8.410156 1.769531 8.554688 4.867188 10.03125 8.113281 C 10.917969 10.179688 11.949219 11.949219 13.867188 13.128906 C 15.636719 14.308594 17.847656 14.898438 19.914062 14.457031 C 20.652344 14.160156 23.457031 12.242188 22.71875 12.390625 L 23.75 11.949219 C 23.601562 12.097656 23.457031 12.242188 23.457031 12.390625 C 23.898438 12.539062 30.683594 7.082031 31.570312 6.492188 C 36.289062 2.507812 40.125 -2.359375 43.664062 -7.226562 C 47.207031 -12.242188 50.894531 -17.257812 54.285156 -22.273438 C 55.910156 -24.636719 57.382812 -26.996094 58.5625 -29.503906 C 59.449219 -31.273438 60.925781 -33.78125 60.480469 -35.847656 Z M 16.375 -18.144531 C 17.40625 -20.800781 18.585938 -23.308594 19.914062 -25.816406 C 20.210938 -26.257812 22.273438 -31.570312 23.308594 -31.863281 C 22.570312 -31.421875 19.472656 -24.191406 18.734375 -22.863281 L 15.933594 -16.375 C 14.457031 -12.832031 12.832031 -9.144531 11.800781 -5.3125 C 12.832031 -9.734375 14.605469 -14.015625 16.375 -18.144531 Z M 12.832031 10.179688 C 13.71875 11.359375 14.898438 12.539062 16.523438 13.128906 C 15.195312 12.6875 14.015625 11.949219 13.128906 11.0625 C 13.277344 11.0625 13.277344 11.210938 13.277344 11.359375 C 12.390625 10.179688 11.210938 7.671875 11.0625 7.226562 C 10.621094 5.457031 10.472656 3.394531 10.621094 1.621094 C 10.621094 0.148438 10.769531 -1.03125 11.0625 -2.359375 L 11.0625 -2.210938 C 10.769531 -0.296875 10.621094 1.621094 10.769531 3.6875 L 10.769531 4.425781 C 10.621094 4.277344 10.621094 4.128906 10.621094 4.128906 C 10.621094 4.128906 10.621094 4.277344 10.769531 4.574219 L 10.769531 4.71875 L 11.359375 7.820312 L 10.917969 5.902344 C 11.210938 6.785156 11.949219 8.410156 12.6875 10.03125 L 12.539062 9.882812 C 12.539062 10.03125 12.6875 10.179688 12.832031 10.324219 Z M 16.964844 -38.5 C 17.703125 -37.910156 19.03125 -37.765625 20.355469 -37.617188 C 19.175781 -37.765625 18.144531 -38.058594 17.40625 -38.648438 C 17.40625 -38.648438 16.523438 -39.386719 16.375 -39.683594 C 16.375 -39.386719 16.667969 -38.648438 16.964844 -38.5 Z M 32.453125 -26.996094 L 29.355469 -20.503906 L 32.453125 -27.144531 Z M 11.210938 -2.804688 C 11.210938 -2.65625 11.0625 -2.507812 11.0625 -2.359375 L 11.0625 -2.507812 C 11.0625 -2.65625 11.210938 -2.65625 11.210938 -2.804688 Z M 32.601562 -27.4375 L 32.601562 -27.289062 L 32.453125 -27.289062 Z M 32.601562 -27.4375 L 32.601562 -27.289062 L 32.453125 -27.289062 Z M 11.359375 -4.71875 C 11.359375 -4.867188 11.507812 -5.015625 11.507812 -5.3125 C 11.507812 -5.015625 11.359375 -4.867188 11.359375 -4.71875 Z M 11.949219 8.851562 C 11.949219 8.851562 12.097656 9 12.097656 9.144531 C 12.097656 9 11.949219 9 11.949219 8.851562 Z M 16.523438 -39.976562 C 16.375 -39.976562 16.375 -39.828125 16.375 -39.828125 Z M 16.523438 -39.976562" transform="translate(279.916 466.759)"/></g></g></g><g fill="#343434"><g><g><path d="M 75.085938 -35.550781 C 74.9375 -38.796875 72.28125 -35.992188 71.398438 -34.8125 C 69.480469 -32.011719 67.710938 -29.0625 65.941406 -26.257812 C 61.957031 -20.210938 57.972656 -14.160156 53.402344 -8.410156 C 38.207031 10.324219 48.828125 -23.011719 47.648438 -22.71875 C 47.058594 -22.570312 46.617188 -20.355469 46.46875 -19.914062 C 47.648438 -25.226562 49.859375 -31.570312 52.664062 -36.730469 C 54.285156 -39.976562 56.203125 -42.632812 53.253906 -46.171875 C 47.796875 -52.8125 41.453125 -46.761719 37.910156 -42.191406 C 36.4375 -47.796875 33.484375 -56.054688 26.257812 -56.054688 C 23.011719 -56.054688 21.09375 -54.433594 18.882812 -52.515625 C 17.554688 -51.628906 16.523438 -51.484375 15.339844 -50.449219 C 13.425781 -49.121094 12.097656 -47.058594 10.769531 -45.289062 C 5.753906 -37.910156 2.210938 -28.617188 0.589844 -20.0625 C -0.148438 -15.933594 -0.441406 -11.359375 0.738281 -7.226562 C 1.476562 -4.867188 4.128906 0.441406 7.523438 0 C 7.671875 0 7.375 -0.148438 6.933594 -0.441406 C 9 0.148438 11.359375 -0.148438 13.128906 -1.328125 C 13.277344 -1.03125 11.507812 -0.296875 11.507812 -0.296875 C 13.128906 2.210938 25.226562 -12.390625 26.109375 -13.71875 C 28.027344 -16.375 29.355469 -19.175781 31.125 -21.980469 C 32.453125 -24.046875 34.519531 -26.699219 35.992188 -28.914062 C 35.847656 -27.878906 35.847656 -26.554688 35.847656 -26.554688 C 33.191406 -18.144531 30.683594 -9 34.222656 -0.296875 C 35.847656 4.128906 39.828125 8.261719 44.84375 7.375 C 49.269531 6.636719 52.957031 2.359375 55.613281 -1.03125 C 58.859375 -4.867188 61.660156 -9.144531 64.464844 -13.570312 C 66.824219 -17.554688 69.039062 -21.539062 70.957031 -25.964844 C 72.136719 -28.765625 75.382812 -32.160156 75.085938 -35.550781 Z M 32.75 -34.519531 C 32.011719 -33.484375 31.273438 -32.453125 30.683594 -31.421875 L 26.847656 -25.964844 C 24.339844 -22.273438 21.683594 -18.734375 18.882812 -15.339844 C 18.144531 -14.308594 14.605469 -9.734375 13.128906 -10.179688 C 10.917969 -10.917969 13.277344 -18.585938 13.570312 -19.765625 C 14.015625 -21.832031 21.832031 -44.550781 23.898438 -44.992188 C 21.242188 -45.140625 12.6875 -18.441406 12.242188 -16.226562 C 13.425781 -23.457031 16.078125 -30.535156 19.03125 -37.175781 C 20.652344 -40.566406 24.339844 -49.566406 29.207031 -49.566406 C 31.863281 -49.566406 32.453125 -44.109375 32.894531 -42.335938 C 32.75 -42.632812 31.421875 -46.910156 31.273438 -46.761719 C 30.535156 -46.171875 33.484375 -38.058594 33.484375 -36.878906 C 33.484375 -35.699219 33.484375 -35.699219 32.75 -34.519531 Z M 36.140625 -27.289062 C 36.140625 -27.289062 36.585938 -29.355469 36.730469 -29.796875 L 37.46875 -30.832031 Z M 33.929688 -36.4375 L 33.929688 -37.910156 C 34.371094 -37.320312 34.371094 -36.878906 33.929688 -36.4375 Z M 33.929688 -36.4375" transform="translate(329.62 466.759)"/></g></g></g><g fill="#343434"><g><g><path d="M 59.007812 -37.617188 C 56.941406 -35.402344 55.613281 -31.714844 53.992188 -29.0625 C 51.484375 -24.78125 48.976562 -20.652344 46.320312 -16.523438 C 41.304688 -8.554688 36.289062 -0.441406 30.242188 6.785156 C 27.734375 9.882812 22.421875 17.40625 17.40625 16.816406 C 13.71875 16.226562 13.71875 9.882812 13.71875 7.082031 C 13.71875 4.71875 13.867188 2.359375 14.160156 0.148438 C 14.308594 -1.179688 15.488281 -5.605469 14.75 -6.785156 L 13.570312 -2.359375 C 13.71875 -4.128906 14.015625 -6.046875 14.457031 -7.820312 C 14.308594 -8.113281 15.636719 -12.242188 15.933594 -13.570312 C 16.667969 -16.523438 17.40625 -19.472656 18.292969 -22.421875 C 19.03125 -25.371094 19.765625 -28.175781 20.652344 -30.976562 C 21.390625 -33.632812 22.421875 -34.960938 24.046875 -37.027344 C 30.683594 -45.289062 36.730469 -54.285156 42.335938 -63.285156 C 44.402344 -66.675781 45.730469 -69.628906 48.238281 -72.429688 C 51.925781 -76.265625 54.433594 -82.019531 56.792969 -86.738281 C 60.777344 -94.410156 66.085938 -105.03125 65.203125 -114.03125 L 65.203125 -114.769531 L 65.054688 -114.914062 C 64.167969 -120.667969 58.859375 -127.453125 52.367188 -125.390625 C 48.976562 -124.355469 46.46875 -120.816406 44.402344 -118.308594 L 41.007812 -113.734375 C 40.273438 -112.851562 39.238281 -110.636719 38.5 -109.457031 L 38.648438 -109.605469 L 33.929688 -101.492188 L 35.109375 -104 C 34.371094 -104.148438 31.125 -97.804688 30.683594 -97.066406 C 29.0625 -94.261719 27.585938 -91.460938 26.257812 -88.65625 C 23.308594 -82.757812 20.355469 -76.707031 18.441406 -70.367188 C 16.375 -64.023438 14.015625 -57.828125 11.800781 -51.484375 C 10.621094 -48.089844 9.441406 -44.550781 8.410156 -41.15625 C 7.523438 -38.355469 5.457031 -33.78125 5.902344 -30.832031 L 6.34375 -30.832031 C 5.902344 -29.796875 5.605469 -28.765625 5.3125 -27.734375 C 5.457031 -28.617188 5.457031 -29.652344 5.605469 -29.945312 C 4.867188 -28.914062 5.015625 -25.371094 4.867188 -25.078125 C 2.949219 -17.113281 0.738281 -9.144531 0.148438 -0.886719 C -0.296875 6.933594 -0.296875 17.257812 5.902344 23.011719 C 12.832031 29.355469 20.800781 25.078125 26.554688 19.621094 C 33.339844 12.980469 39.09375 5.164062 44.402344 -2.507812 C 49.269531 -9.589844 53.105469 -17.113281 57.53125 -24.191406 C 59.300781 -27.144531 61.21875 -30.09375 62.105469 -33.339844 C 62.695312 -35.699219 62.398438 -41.15625 59.007812 -37.617188 Z M 40.566406 -90.425781 C 43.515625 -97.507812 46.46875 -104.738281 50.597656 -111.375 C 51.628906 -112.996094 58.269531 -121.847656 57.972656 -114.03125 L 57.972656 -113.882812 C 57.679688 -105.621094 52.367188 -96.917969 48.828125 -89.835938 L 42.632812 -78.332031 C 40.566406 -74.789062 37.027344 -70.367188 35.847656 -66.53125 C 36.730469 -68.890625 39.386719 -72.28125 40.714844 -74.496094 C 42.925781 -78.183594 44.84375 -81.871094 46.910156 -85.558594 C 50.304688 -92.050781 53.992188 -98.835938 56.5 -105.917969 C 49.859375 -86.148438 37.46875 -67.710938 26.554688 -50.15625 C 30.832031 -63.136719 35.109375 -77.296875 40.566406 -90.425781 Z M 35.847656 -100.753906 C 37.320312 -103.554688 39.976562 -105.917969 41.453125 -108.570312 C 38.355469 -102.375 34.519531 -96.769531 31.273438 -90.871094 C 31.273438 -91.019531 31.273438 -91.3125 31.421875 -91.460938 C 32.75 -94.707031 34.222656 -97.65625 35.847656 -100.753906 Z M 7.964844 -24.488281 C 7.820312 -24.191406 7.820312 -24.046875 7.820312 -24.046875 C 6.046875 -19.914062 5.902344 -14.308594 5.015625 -9.882812 C 4.867188 -8.851562 4.574219 -7.964844 4.574219 -6.933594 L 4.574219 -7.375 L 4.128906 -2.65625 C 4.425781 -7.964844 5.015625 -13.425781 6.046875 -18.585938 L 6.046875 -18.441406 C 6.492188 -21.832031 7.226562 -24.929688 7.820312 -24.929688 C 8.113281 -25.078125 8.113281 -24.636719 7.964844 -24.488281 Z M 7.964844 -24.488281" transform="translate(393.924 466.759)"/></g></g></g><g fill="#343434"><g><g><path d="M 78.625 -111.226562 C 74.054688 -109.898438 69.480469 -104.292969 66.234375 -101.050781 C 64.167969 -99.132812 62.105469 -97.066406 60.1875 -94.851562 C 58.859375 -93.378906 55.464844 -90.425781 55.171875 -88.363281 C 55.320312 -88.214844 55.320312 -88.214844 55.464844 -88.214844 L 53.402344 -85.558594 C 53.253906 -85.410156 54.875 -87.773438 54.875 -87.773438 C 54.136719 -87.625 52.8125 -84.820312 52.8125 -84.820312 C 48.679688 -79.511719 44.109375 -74.644531 40.273438 -69.039062 C 35.992188 -62.695312 32.453125 -56.203125 29.0625 -49.417969 C 30.976562 -56.5 33.484375 -63.433594 36.289062 -70.21875 C 37.027344 -71.988281 45.140625 -91.164062 45.433594 -91.019531 C 44.992188 -91.164062 37.765625 -74.9375 37.320312 -74.054688 C 40.714844 -82.3125 44.402344 -90.425781 48.679688 -98.246094 C 48.386719 -97.65625 48.089844 -96.917969 48.238281 -96.917969 C 48.828125 -96.769531 51.777344 -102.523438 51.335938 -102.671875 L 50.894531 -102.375 C 51.777344 -104 52.222656 -104.882812 51.335938 -107.246094 C 50.449219 -109.605469 48.238281 -113.734375 45.140625 -112.40625 C 43.222656 -111.671875 41.601562 -108.128906 40.863281 -106.65625 C 40.417969 -105.917969 40.273438 -104.738281 39.828125 -104.148438 C 39.238281 -103.261719 38.207031 -102.820312 37.320312 -101.640625 C 35.402344 -98.6875 34.078125 -95.148438 32.75 -91.902344 C 32.011719 -90.132812 23.898438 -72.578125 24.191406 -72.429688 C 24.488281 -72.578125 24.636719 -72.875 24.78125 -73.167969 C 24.339844 -71.839844 23.75 -70.511719 23.160156 -69.183594 C 23.011719 -69.332031 23.601562 -70.367188 23.457031 -70.367188 C 21.980469 -70.660156 17.554688 -58.417969 17.257812 -57.238281 C 16.667969 -54.433594 15.933594 -51.925781 14.75 -49.121094 C 14.015625 -47.351562 13.277344 -45.582031 12.6875 -43.8125 C 12.6875 -43.664062 11.949219 -39.976562 12.539062 -41.304688 C 12.539062 -40.863281 12.390625 -40.566406 12.242188 -40.125 C 12.242188 -40.273438 12.242188 -40.566406 12.097656 -40.714844 C 11.800781 -40.566406 11.0625 -36.585938 10.917969 -36.4375 C 10.324219 -34.960938 9.441406 -33.632812 8.851562 -32.160156 C 6.933594 -28.027344 5.753906 -23.457031 4.71875 -19.03125 L 1.621094 -3.984375 C 1.03125 -1.179688 -1.328125 5.164062 0.886719 7.964844 C 0.886719 7.671875 0.886719 7.523438 1.03125 7.375 C 1.03125 7.523438 1.03125 7.820312 1.179688 8.113281 C 2.507812 12.980469 10.472656 11.507812 13.128906 8.703125 C 13.128906 9 13.277344 9.144531 13.425781 9.292969 C 14.457031 1.03125 17.40625 -7.375 20.355469 -15.195312 C 21.539062 -18.585938 22.71875 -24.191406 25.078125 -26.847656 C 25.226562 -28.324219 25.964844 -28.765625 27.144531 -28.027344 C 28.027344 -27.878906 29.0625 -27.734375 29.945312 -27.734375 C 30.832031 -27.585938 32.011719 -27.585938 33.042969 -27.734375 C 39.238281 -28.765625 45.878906 -32.894531 51.1875 -36.140625 C 53.253906 -37.320312 54.730469 -39.09375 56.644531 -40.125 C 58.710938 -41.304688 60.777344 -41.894531 62.84375 -43.515625 C 68.449219 -47.796875 73.019531 -52.664062 77.445312 -58.121094 C 81.871094 -63.433594 85.707031 -68.890625 88.363281 -75.382812 C 89.835938 -78.625 91.019531 -82.167969 92.050781 -85.707031 C 92.34375 -87.035156 93.378906 -88.953125 93.082031 -90.28125 C 93.082031 -90.28125 92.640625 -89.246094 92.34375 -88.511719 C 92.789062 -91.019531 93.082031 -93.378906 92.933594 -96.035156 C 93.082031 -95.441406 93.378906 -94.558594 93.230469 -94.410156 C 93.527344 -94.558594 93.378906 -96.476562 93.378906 -97.359375 C 93.378906 -97.066406 93.230469 -98.394531 93.378906 -97.949219 C 92.789062 -105.03125 86.296875 -113.441406 78.625 -111.226562 Z M 78.480469 -93.230469 C 78.332031 -92.640625 78.332031 -92.789062 78.480469 -93.082031 C 77.742188 -82.90625 71.988281 -72.875 66.234375 -64.761719 C 63.285156 -60.480469 59.890625 -56.5 56.351562 -52.664062 C 54.730469 -51.039062 52.957031 -49.417969 51.1875 -47.941406 C 49.859375 -46.617188 47.058594 -45.140625 45.730469 -43.515625 C 46.910156 -44.699219 49.566406 -46.171875 50.746094 -47.058594 C 53.105469 -49.121094 55.464844 -51.484375 57.679688 -53.695312 C 61.21875 -57.53125 64.613281 -61.515625 67.5625 -65.792969 C 58.5625 -52.367188 46.171875 -40.714844 31.273438 -34.519531 C 32.453125 -35.257812 35.402344 -36.730469 35.402344 -36.878906 C 35.109375 -37.175781 29.207031 -34.519531 28.617188 -34.222656 C 30.535156 -38.058594 32.453125 -41.894531 34.519531 -45.730469 C 35.109375 -46.617188 39.828125 -55.613281 39.828125 -55.613281 C 39.535156 -55.613281 39.238281 -55.464844 39.09375 -55.023438 C 45.582031 -65.496094 54.136719 -75.972656 62.105469 -85.558594 C 64.613281 -88.511719 79.214844 -107.539062 78.480469 -93.378906 Z M 5.902344 -16.964844 C 7.375 -23.308594 10.472656 -27.585938 12.390625 -33.339844 C 9.734375 -24.78125 6.492188 -16.078125 3.984375 -7.671875 C 4.574219 -10.621094 5.164062 -14.308594 5.902344 -16.964844 Z M 2.949219 1.917969 C 2.804688 2.507812 1.769531 3.246094 1.621094 3.984375 C 2.066406 1.476562 2.507812 -0.738281 3.097656 -3.097656 C 2.804688 -1.476562 3.246094 0.296875 2.949219 1.917969 Z M 35.402344 -69.183594 L 32.304688 -61.515625 L 35.257812 -69.039062 Z M 35.550781 -69.773438 C 35.550781 -69.480469 35.402344 -69.480469 35.402344 -69.332031 C 35.402344 -69.480469 35.402344 -69.480469 35.550781 -69.773438 Z M 35.847656 -70.367188 L 35.699219 -70.21875 L 35.847656 -70.511719 Z M 37.765625 -52.957031 C 37.765625 -53.105469 37.910156 -53.105469 37.910156 -53.253906 C 37.910156 -53.105469 37.765625 -52.957031 37.765625 -52.957031 Z M 37.765625 -52.957031" transform="translate(487.431 466.759)"/></g></g></g><g fill="#343434"><g><g><path d="M 59.007812 -37.617188 C 56.941406 -35.402344 55.613281 -31.714844 53.992188 -29.0625 C 51.484375 -24.78125 48.976562 -20.652344 46.320312 -16.523438 C 41.304688 -8.554688 36.289062 -0.441406 30.242188 6.785156 C 27.734375 9.882812 22.421875 17.40625 17.40625 16.816406 C 13.71875 16.226562 13.71875 9.882812 13.71875 7.082031 C 13.71875 4.71875 13.867188 2.359375 14.160156 0.148438 C 14.308594 -1.179688 15.488281 -5.605469 14.75 -6.785156 L 13.570312 -2.359375 C 13.71875 -4.128906 14.015625 -6.046875 14.457031 -7.820312 C 14.308594 -8.113281 15.636719 -12.242188 15.933594 -13.570312 C 16.667969 -16.523438 17.40625 -19.472656 18.292969 -22.421875 C 19.03125 -25.371094 19.765625 -28.175781 20.652344 -30.976562 C 21.390625 -33.632812 22.421875 -34.960938 24.046875 -37.027344 C 30.683594 -45.289062 36.730469 -54.285156 42.335938 -63.285156 C 44.402344 -66.675781 45.730469 -69.628906 48.238281 -72.429688 C 51.925781 -76.265625 54.433594 -82.019531 56.792969 -86.738281 C 60.777344 -94.410156 66.085938 -105.03125 65.203125 -114.03125 L 65.203125 -114.769531 L 65.054688 -114.914062 C 64.167969 -120.667969 58.859375 -127.453125 52.367188 -125.390625 C 48.976562 -124.355469 46.46875 -120.816406 44.402344 -118.308594 L 41.007812 -113.734375 C 40.273438 -112.851562 39.238281 -110.636719 38.5 -109.457031 L 38.648438 -109.605469 L 33.929688 -101.492188 L 35.109375 -104 C 34.371094 -104.148438 31.125 -97.804688 30.683594 -97.066406 C 29.0625 -94.261719 27.585938 -91.460938 26.257812 -88.65625 C 23.308594 -82.757812 20.355469 -76.707031 18.441406 -70.367188 C 16.375 -64.023438 14.015625 -57.828125 11.800781 -51.484375 C 10.621094 -48.089844 9.441406 -44.550781 8.410156 -41.15625 C 7.523438 -38.355469 5.457031 -33.78125 5.902344 -30.832031 L 6.34375 -30.832031 C 5.902344 -29.796875 5.605469 -28.765625 5.3125 -27.734375 C 5.457031 -28.617188 5.457031 -29.652344 5.605469 -29.945312 C 4.867188 -28.914062 5.015625 -25.371094 4.867188 -25.078125 C 2.949219 -17.113281 0.738281 -9.144531 0.148438 -0.886719 C -0.296875 6.933594 -0.296875 17.257812 5.902344 23.011719 C 12.832031 29.355469 20.800781 25.078125 26.554688 19.621094 C 33.339844 12.980469 39.09375 5.164062 44.402344 -2.507812 C 49.269531 -9.589844 53.105469 -17.113281 57.53125 -24.191406 C 59.300781 -27.144531 61.21875 -30.09375 62.105469 -33.339844 C 62.695312 -35.699219 62.398438 -41.15625 59.007812 -37.617188 Z M 40.566406 -90.425781 C 43.515625 -97.507812 46.46875 -104.738281 50.597656 -111.375 C 51.628906 -112.996094 58.269531 -121.847656 57.972656 -114.03125 L 57.972656 -113.882812 C 57.679688 -105.621094 52.367188 -96.917969 48.828125 -89.835938 L 42.632812 -78.332031 C 40.566406 -74.789062 37.027344 -70.367188 35.847656 -66.53125 C 36.730469 -68.890625 39.386719 -72.28125 40.714844 -74.496094 C 42.925781 -78.183594 44.84375 -81.871094 46.910156 -85.558594 C 50.304688 -92.050781 53.992188 -98.835938 56.5 -105.917969 C 49.859375 -86.148438 37.46875 -67.710938 26.554688 -50.15625 C 30.832031 -63.136719 35.109375 -77.296875 40.566406 -90.425781 Z M 35.847656 -100.753906 C 37.320312 -103.554688 39.976562 -105.917969 41.453125 -108.570312 C 38.355469 -102.375 34.519531 -96.769531 31.273438 -90.871094 C 31.273438 -91.019531 31.273438 -91.3125 31.421875 -91.460938 C 32.75 -94.707031 34.222656 -97.65625 35.847656 -100.753906 Z M 7.964844 -24.488281 C 7.820312 -24.191406 7.820312 -24.046875 7.820312 -24.046875 C 6.046875 -19.914062 5.902344 -14.308594 5.015625 -9.882812 C 4.867188 -8.851562 4.574219 -7.964844 4.574219 -6.933594 L 4.574219 -7.375 L 4.128906 -2.65625 C 4.425781 -7.964844 5.015625 -13.425781 6.046875 -18.585938 L 6.046875 -18.441406 C 6.492188 -21.832031 7.226562 -24.929688 7.820312 -24.929688 C 8.113281 -25.078125 8.113281 -24.636719 7.964844 -24.488281 Z M 7.964844 -24.488281" transform="translate(561.913 466.759)"/></g></g></g><g fill="#343434"><g><g><path d="M 75.085938 -35.550781 C 74.9375 -38.796875 72.28125 -35.992188 71.398438 -34.8125 C 69.480469 -32.011719 67.710938 -29.0625 65.941406 -26.257812 C 61.957031 -20.210938 57.972656 -14.160156 53.402344 -8.410156 C 38.207031 10.324219 48.828125 -23.011719 47.648438 -22.71875 C 47.058594 -22.570312 46.617188 -20.355469 46.46875 -19.914062 C 47.648438 -25.226562 49.859375 -31.570312 52.664062 -36.730469 C 54.285156 -39.976562 56.203125 -42.632812 53.253906 -46.171875 C 47.796875 -52.8125 41.453125 -46.761719 37.910156 -42.191406 C 36.4375 -47.796875 33.484375 -56.054688 26.257812 -56.054688 C 23.011719 -56.054688 21.09375 -54.433594 18.882812 -52.515625 C 17.554688 -51.628906 16.523438 -51.484375 15.339844 -50.449219 C 13.425781 -49.121094 12.097656 -47.058594 10.769531 -45.289062 C 5.753906 -37.910156 2.210938 -28.617188 0.589844 -20.0625 C -0.148438 -15.933594 -0.441406 -11.359375 0.738281 -7.226562 C 1.476562 -4.867188 4.128906 0.441406 7.523438 0 C 7.671875 0 7.375 -0.148438 6.933594 -0.441406 C 9 0.148438 11.359375 -0.148438 13.128906 -1.328125 C 13.277344 -1.03125 11.507812 -0.296875 11.507812 -0.296875 C 13.128906 2.210938 25.226562 -12.390625 26.109375 -13.71875 C 28.027344 -16.375 29.355469 -19.175781 31.125 -21.980469 C 32.453125 -24.046875 34.519531 -26.699219 35.992188 -28.914062 C 35.847656 -27.878906 35.847656 -26.554688 35.847656 -26.554688 C 33.191406 -18.144531 30.683594 -9 34.222656 -0.296875 C 35.847656 4.128906 39.828125 8.261719 44.84375 7.375 C 49.269531 6.636719 52.957031 2.359375 55.613281 -1.03125 C 58.859375 -4.867188 61.660156 -9.144531 64.464844 -13.570312 C 66.824219 -17.554688 69.039062 -21.539062 70.957031 -25.964844 C 72.136719 -28.765625 75.382812 -32.160156 75.085938 -35.550781 Z M 32.75 -34.519531 C 32.011719 -33.484375 31.273438 -32.453125 30.683594 -31.421875 L 26.847656 -25.964844 C 24.339844 -22.273438 21.683594 -18.734375 18.882812 -15.339844 C 18.144531 -14.308594 14.605469 -9.734375 13.128906 -10.179688 C 10.917969 -10.917969 13.277344 -18.585938 13.570312 -19.765625 C 14.015625 -21.832031 21.832031 -44.550781 23.898438 -44.992188 C 21.242188 -45.140625 12.6875 -18.441406 12.242188 -16.226562 C 13.425781 -23.457031 16.078125 -30.535156 19.03125 -37.175781 C 20.652344 -40.566406 24.339844 -49.566406 29.207031 -49.566406 C 31.863281 -49.566406 32.453125 -44.109375 32.894531 -42.335938 C 32.75 -42.632812 31.421875 -46.910156 31.273438 -46.761719 C 30.535156 -46.171875 33.484375 -38.058594 33.484375 -36.878906 C 33.484375 -35.699219 33.484375 -35.699219 32.75 -34.519531 Z M 36.140625 -27.289062 C 36.140625 -27.289062 36.585938 -29.355469 36.730469 -29.796875 L 37.46875 -30.832031 Z M 33.929688 -36.4375 L 33.929688 -37.910156 C 34.371094 -37.320312 34.371094 -36.878906 33.929688 -36.4375 Z M 33.929688 -36.4375" transform="translate(614.123 466.759)"/></g></g></g><g fill="#343434"><g><g><path d="M 59.890625 -76.707031 C 59.746094 -78.773438 57.53125 -77.152344 56.351562 -77.152344 C 50.449219 -76.855469 44.550781 -76.855469 38.796875 -76.5625 C 38.796875 -76.707031 39.09375 -77.296875 39.535156 -78.183594 C 38.945312 -77.152344 38.5 -76.5625 38.058594 -76.5625 C 42.484375 -85.558594 47.207031 -94.558594 52.8125 -102.820312 C 52.664062 -102.523438 50.449219 -98.835938 50.597656 -98.835938 C 51.039062 -98.6875 56.5 -106.210938 56.644531 -107.246094 C 56.644531 -107.835938 55.320312 -106.359375 55.320312 -106.507812 C 56.203125 -107.390625 57.679688 -108.128906 58.121094 -109.308594 C 59.152344 -112.261719 56.054688 -113.585938 53.84375 -114.03125 C 49.269531 -114.914062 44.109375 -114.324219 41.15625 -110.488281 C 38.355469 -107.097656 36.289062 -103.113281 34.519531 -99.132812 C 33.632812 -97.359375 32.453125 -96.917969 31.273438 -95.296875 C 29.503906 -92.789062 28.324219 -89.835938 26.996094 -87.035156 C 25.816406 -84.527344 24.636719 -81.871094 23.601562 -79.214844 C 23.011719 -77.890625 23.011719 -76.855469 21.683594 -76.414062 C 20.355469 -75.824219 17.847656 -76.265625 16.375 -76.117188 C 10.621094 -75.382812 5.015625 -75.675781 -0.738281 -75.085938 C -3.6875 -74.9375 -6.636719 -74.9375 -9.441406 -73.90625 C -10.03125 -73.757812 -13.277344 -73.019531 -13.570312 -72.578125 C -14.457031 -70.957031 -10.917969 -70.808594 -10.179688 -70.660156 C -4.574219 -69.921875 2.507812 -69.332031 8.113281 -70.367188 C 11.949219 -71.101562 15.933594 -70.808594 20.0625 -71.101562 C 17.996094 -66.675781 16.375 -61.957031 14.75 -57.238281 L 12.980469 -52.074219 C 12.390625 -50.449219 10.472656 -47.351562 10.472656 -45.582031 C 10.472656 -45.289062 10.917969 -46.023438 11.210938 -46.761719 C 10.472656 -44.550781 9.589844 -42.335938 9 -40.125 C 9 -40.273438 9.441406 -42.042969 9.292969 -42.042969 C 8.554688 -42.042969 5.605469 -33.042969 5.3125 -32.304688 C 3.835938 -27.878906 2.210938 -23.457031 1.476562 -18.734375 C 0.589844 -14.015625 -0.589844 -9.441406 -1.621094 -4.867188 C -2.210938 -2.507812 -2.804688 -0.296875 -3.097656 2.066406 C -3.394531 3.246094 -3.6875 4.574219 -3.6875 5.753906 C -3.6875 6.046875 -3.6875 7.964844 -3.394531 7.375 L -3.6875 10.324219 L -3.6875 8.113281 C -4.574219 9.144531 -3.6875 13.867188 -3.539062 14.75 C -2.949219 17.703125 -1.476562 20.355469 1.179688 22.128906 C 3.539062 23.898438 7.226562 25.519531 10.03125 24.191406 C 13.71875 22.421875 16.816406 18.292969 19.175781 15.339844 C 24.339844 9.292969 29.0625 2.949219 33.78125 -3.394531 C 38.058594 -9.292969 42.484375 -15.046875 46.171875 -21.242188 C 48.238281 -24.78125 52.222656 -28.027344 53.546875 -32.011719 C 54.285156 -33.929688 53.84375 -36.289062 51.484375 -35.847656 C 49.566406 -35.402344 46.910156 -30.242188 45.730469 -28.765625 C 40.417969 -22.128906 35.402344 -15.339844 30.09375 -8.703125 L 21.539062 1.769531 C 20.210938 3.246094 18.882812 4.867188 17.40625 6.34375 C 16.816406 7.082031 13.128906 10.03125 13.277344 10.917969 C 13.277344 11.210938 14.898438 9.882812 15.488281 9.441406 C 14.75 10.324219 13.867188 11.0625 13.128906 11.800781 C 13.277344 11.652344 10.179688 13.425781 9.734375 13.128906 C 6.933594 11.949219 9.441406 3.394531 9.882812 1.328125 C 12.539062 -10.621094 16.523438 -22.71875 20.503906 -34.222656 C 22.863281 -40.566406 25.226562 -46.617188 27.878906 -52.8125 C 29.207031 -55.910156 30.535156 -59.152344 32.011719 -62.253906 L 34.078125 -67.859375 L 32.453125 -64.613281 C 33.484375 -67.265625 34.960938 -71.25 35.847656 -71.398438 L 35.402344 -70.511719 C 35.699219 -70.957031 35.992188 -71.25 36.289062 -71.398438 C 37.910156 -72.429688 42.042969 -71.398438 43.960938 -71.398438 C 45.289062 -71.398438 46.910156 -71.25 48.238281 -71.691406 C 49.121094 -71.988281 48.828125 -72.429688 49.859375 -72.726562 C 51.628906 -73.019531 53.84375 -71.839844 55.761719 -72.429688 C 57.53125 -72.875 60.039062 -74.496094 59.890625 -76.5625 Z M 31.863281 -68.152344 C 25.226562 -54.136719 20.210938 -39.09375 14.898438 -24.488281 C 12.390625 -17.847656 10.03125 -10.917969 8.410156 -3.984375 L 7.671875 -1.179688 C 8.703125 -6.492188 9.882812 -11.652344 11.359375 -16.816406 C 14.605469 -28.175781 18.734375 -39.386719 23.601562 -50.15625 C 31.863281 -68.59375 39.238281 -88.363281 51.039062 -105.03125 C 43.074219 -93.671875 37.765625 -80.691406 31.863281 -68.152344 Z M 41.601562 -82.757812 L 45.140625 -89.542969 C 44.402344 -89.394531 43.074219 -86.148438 41.601562 -82.757812 Z M 26.40625 -50.597656 C 25.371094 -47.796875 24.191406 -45.140625 23.011719 -42.484375 C 24.191406 -45.289062 25.226562 -48.238281 26.554688 -51.1875 C 26.40625 -50.894531 26.40625 -50.746094 26.40625 -50.597656 Z M 39.683594 -78.480469 L 41.15625 -81.722656 C 40.714844 -80.542969 40.125 -79.363281 39.683594 -78.480469 Z M 7.523438 14.457031 C 7.375 14.457031 7.226562 14.308594 7.082031 14.160156 Z M 7.523438 14.457031" transform="translate(678.428 466.759)"/></g></g></g><g fill="#343434"><g><g><path d="M 56.5 -36.4375 C 56.5 -36.289062 56.5 -36.289062 56.351562 -36.4375 L 56.351562 -36.585938 C 53.992188 -40.566406 50.894531 -35.109375 49.566406 -33.191406 C 47.058594 -29.796875 44.699219 -26.554688 42.042969 -23.457031 C 39.828125 -20.800781 37.46875 -18.144531 35.699219 -15.339844 C 35.699219 -15.046875 35.402344 -14.308594 35.402344 -14.308594 C 34.8125 -13.425781 33.929688 -12.6875 33.191406 -11.800781 C 31.863281 -10.472656 30.535156 -9 29.0625 -7.671875 C 26.847656 -5.605469 14.457031 6.046875 12.832031 -1.476562 C 11.949219 -5.164062 13.128906 -9.734375 13.867188 -13.277344 C 14.308594 -15.195312 14.75 -16.964844 15.046875 -18.882812 C 15.339844 -20.355469 14.898438 -21.832031 15.636719 -23.308594 C 16.078125 -24.191406 16.226562 -24.046875 17.257812 -24.339844 L 19.765625 -25.226562 C 21.390625 -25.816406 23.011719 -26.40625 24.488281 -27.289062 C 26.699219 -28.617188 28.765625 -30.242188 30.683594 -31.863281 C 35.257812 -35.699219 40.125 -40.273438 42.042969 -46.023438 C 43.074219 -49.269531 43.222656 -52.8125 41.15625 -55.613281 C 39.238281 -58.121094 35.992188 -59.449219 33.042969 -60.039062 C 25.078125 -61.515625 19.03125 -56.941406 14.457031 -50.894531 C 8.851562 -43.960938 4.867188 -35.402344 2.949219 -26.699219 C 1.917969 -22.421875 1.328125 -18.144531 0.589844 -13.71875 C -0.148438 -9.292969 -0.589844 -5.164062 1.769531 -1.03125 C 1.621094 -2.507812 1.328125 -3.835938 1.328125 -5.164062 C 1.328125 -5.902344 1.621094 -6.636719 1.621094 -7.226562 C 1.621094 -7.523438 1.328125 -8.410156 1.328125 -8.851562 C 1.328125 -10.179688 1.621094 -11.210938 1.917969 -12.539062 C 2.066406 -13.867188 1.917969 -15.195312 2.066406 -16.523438 C 2.210938 -17.996094 2.804688 -19.175781 3.394531 -20.503906 C 3.835938 -21.683594 3.984375 -22.71875 4.425781 -23.898438 C 4.867188 -24.929688 5.164062 -26.109375 5.605469 -27.289062 C 5.753906 -28.027344 6.492188 -28.914062 6.933594 -29.796875 C 6.492188 -28.46875 5.605469 -27.289062 5.3125 -26.109375 C 4.867188 -24.339844 5.164062 -22.421875 5.015625 -20.652344 C 4.71875 -18.734375 4.128906 -16.816406 3.835938 -14.75 C 3.539062 -12.832031 2.65625 -11.0625 2.359375 -9.144531 C 2.066406 -7.375 1.476562 -6.046875 1.621094 -4.277344 C 1.621094 -3.246094 1.769531 -2.210938 1.917969 -1.328125 C 2.066406 -0.148438 2.804688 0.589844 3.539062 1.476562 C 6.046875 4.425781 9.441406 6.785156 13.277344 7.820312 C 15.933594 8.554688 18.292969 8.410156 20.800781 7.082031 C 24.339844 5.164062 27.4375 2.210938 30.09375 -0.589844 C 32.601562 -3.394531 34.519531 -6.492188 36.730469 -9.441406 C 38.796875 -12.097656 41.304688 -14.605469 43.371094 -17.257812 L 51.335938 -27.585938 L 55.910156 -33.632812 C 56.644531 -34.519531 57.089844 -35.257812 56.5 -36.4375 Z M 19.914062 -34.8125 C 20.0625 -35.109375 20.0625 -35.257812 20.0625 -35.257812 C 22.273438 -39.976562 23.898438 -44.992188 26.996094 -49.566406 L 29.652344 -53.105469 C 30.242188 -53.84375 31.273438 -55.171875 32.304688 -55.464844 C 34.519531 -55.910156 35.109375 -52.074219 34.960938 -50.597656 L 34.371094 -47.5 C 34.222656 -46.617188 34.519531 -46.023438 34.371094 -45.289062 C 34.078125 -44.402344 33.339844 -43.960938 32.894531 -43.222656 L 30.386719 -39.976562 C 26.996094 -35.992188 22.71875 -32.601562 17.996094 -30.09375 C 18.734375 -31.714844 19.175781 -33.339844 19.914062 -34.8125 Z M 19.914062 -34.8125" transform="translate(723.707 466.759)"/></g></g></g><g clip-path="url(#b)"><path fill="#009245" d="M 359.648438 402.207031 L 359.738281 402.085938 L 360.105469 401.566406 C 360.226562 401.386719 360.347656 401.210938 360.480469 401.046875 C 361.5 399.699219 362.550781 398.382812 363.660156 397.125 L 364.488281 396.183594 C 364.632812 396.03125 364.765625 395.863281 364.910156 395.722656 L 365.34375 395.269531 L 366.207031 394.363281 L 366.636719 393.910156 C 366.78125 393.765625 366.9375 393.621094 367.082031 393.46875 C 367.667969 392.882812 368.253906 392.296875 368.851562 391.722656 L 370.667969 390.042969 C 370.96875 389.753906 371.289062 389.492188 371.589844 389.226562 L 372.519531 388.40625 C 372.828125 388.144531 373.136719 387.867188 373.449219 387.601562 L 374.402344 386.816406 L 375.351562 386.03125 C 375.675781 385.777344 375.984375 385.503906 376.304688 385.257812 L 378.253906 383.746094 C 378.898438 383.238281 379.5625 382.761719 380.214844 382.277344 C 380.878906 381.789062 381.53125 381.304688 382.195312 380.828125 L 384.210938 379.425781 L 385.21875 378.730469 L 385.476562 378.554688 L 385.730469 378.386719 L 386.238281 378.046875 L 388.277344 376.699219 C 388.621094 376.476562 388.953125 376.246094 389.296875 376.023438 L 390.324219 375.371094 C 391.710938 374.511719 393.070312 373.628906 394.476562 372.808594 C 400.058594 369.460938 405.761719 366.371094 411.554688 363.453125 C 406.027344 366.832031 400.601562 370.367188 395.351562 374.125 C 394.023438 375.050781 392.75 376.023438 391.453125 376.984375 L 390.492188 377.703125 C 390.171875 377.945312 389.859375 378.199219 389.539062 378.445312 L 387.632812 379.933594 L 387.160156 380.3125 L 386.691406 380.6875 L 385.761719 381.449219 L 383.902344 382.984375 C 383.292969 383.503906 382.695312 384.035156 382.085938 384.5625 C 381.476562 385.09375 380.867188 385.613281 380.292969 386.15625 L 378.519531 387.777344 C 378.222656 388.042969 377.945312 388.332031 377.65625 388.605469 L 376.792969 389.433594 L 375.929688 390.265625 C 375.652344 390.550781 375.375 390.839844 375.097656 391.113281 L 374.269531 391.964844 C 373.992188 392.253906 373.703125 392.527344 373.449219 392.828125 L 371.84375 394.582031 C 371.324219 395.179688 370.8125 395.777344 370.292969 396.371094 C 370.160156 396.527344 370.039062 396.671875 369.90625 396.824219 L 369.539062 397.289062 L 368.796875 398.207031 L 368.433594 398.671875 C 368.308594 398.824219 368.199219 398.980469 368.078125 399.132812 L 367.367188 400.074219 C 366.425781 401.320312 365.5625 402.613281 364.734375 403.917969 C 364.621094 404.082031 364.535156 404.25 364.433594 404.414062 L 364.136719 404.914062 L 363.835938 405.410156 L 363.691406 405.652344 L 363.558594 405.90625 L 363.015625 406.910156 C 362.917969 407.078125 362.839844 407.242188 362.761719 407.417969 L 362.507812 407.929688 C 362.386719 408.171875 362.273438 408.414062 362.152344 408.667969 C 362.773438 408.636719 363.40625 408.601562 364.023438 408.558594 C 367.757812 408.335938 371.488281 408.105469 375.210938 407.804688 C 379.195312 407.496094 383.261719 407.242188 387.125 406.195312 C 389.738281 405.488281 392.273438 404.503906 394.722656 403.355469 C 402.007812 399.941406 408.753906 394.992188 413.171875 388.277344 C 417.003906 382.441406 418.929688 375.515625 419.695312 368.578125 C 420.457031 361.640625 420.105469 354.625 419.695312 347.65625 C 416.957031 349.867188 414.046875 351.777344 410.980469 353.457031 C 405.609375 356.40625 399.828125 358.648438 393.925781 360.601562 C 391.632812 361.367188 389.316406 362.082031 387.003906 362.78125 C 385.90625 363.109375 384.800781 363.429688 383.703125 363.761719 C 380.914062 364.578125 378.042969 365.453125 375.34375 366.589844 C 371.457031 368.214844 367.910156 370.378906 365.417969 373.714844 C 361.921875 378.398438 361.34375 384.011719 361.523438 389.65625 C 361.523438 389.679688 361.5 390.265625 361.421875 391.226562 C 361.300781 392.738281 361.066406 395.191406 360.613281 397.808594 C 360.371094 399.222656 360.070312 400.679688 359.695312 402.0625 C 359.683594 402.105469 359.660156 402.152344 359.648438 402.207031 Z M 359.648438 402.207031"/></g><g clip-path="url(#c)"><path fill="#39B54A" d="M 329.949219 372.601562 C 331.941406 384.101562 340.757812 395.921875 351.125 402.226562 C 350.957031 401.796875 350.800781 401.367188 350.667969 400.925781 C 349.90625 398.617188 349.40625 396.273438 349.019531 393.953125 C 348.242188 389.3125 347.921875 384.742188 346.96875 380.332031 C 346.726562 379.226562 346.449219 378.144531 346.128906 377.074219 C 345.796875 376.003906 345.421875 374.941406 344.988281 373.902344 C 344.125 371.816406 343.074219 369.792969 341.886719 367.851562 C 339.507812 363.960938 336.648438 360.316406 333.4375 357.023438 C 336.902344 360.074219 340.050781 363.496094 342.785156 367.265625 C 344.148438 369.152344 345.386719 371.140625 346.449219 373.242188 C 346.980469 374.289062 347.46875 375.363281 347.902344 376.464844 C 348.332031 377.570312 348.710938 378.6875 349.050781 379.8125 C 350.402344 384.332031 351.089844 388.949219 352.175781 393.3125 C 352.71875 395.5 353.359375 397.632812 354.203125 399.632812 C 354.613281 400.613281 355.066406 401.554688 355.574219 402.460938 C 356.152344 397.6875 357.546875 393.035156 358.542969 388.320312 C 359.660156 382.984375 360.257812 377.339844 358.566406 372.148438 C 356.21875 364.921875 349.90625 359.796875 343.726562 355.34375 C 337.535156 350.902344 330.933594 346.429688 327.457031 339.667969 C 330.667969 350.242188 328.066406 361.71875 329.949219 372.601562 Z M 329.949219 372.601562"/></g><g fill="#025B4B"><g><g><path d="M 23.578125 2.03125 C 24.203125 3.414062 24.53125 4.90625 24.5625 6.5 C 24.601562 8.09375 24.359375 9.578125 23.828125 10.953125 L 19.359375 9.703125 C 19.828125 8.753906 20.085938 7.757812 20.140625 6.71875 C 20.191406 5.6875 20.023438 4.753906 19.640625 3.921875 C 18.972656 2.453125 17.894531 1.457031 16.40625 0.9375 C 14.914062 0.414062 13.410156 0.5 11.890625 1.1875 C 10.328125 1.894531 9.25 2.984375 8.65625 4.453125 C 8.0625 5.929688 8.097656 7.40625 8.765625 8.875 C 9.117188 9.644531 9.6875 10.359375 10.46875 11.015625 C 11.25 11.679688 12.125 12.191406 13.09375 12.546875 L 11.421875 16.640625 C 9.941406 16.097656 8.578125 15.28125 7.328125 14.1875 C 6.078125 13.09375 5.140625 11.863281 4.515625 10.5 C 3.242188 7.707031 3.097656 4.96875 4.078125 2.28125 C 5.066406 -0.40625 6.925781 -2.375 9.65625 -3.625 C 12.332031 -4.832031 15 -4.894531 17.65625 -3.8125 C 20.3125 -2.738281 22.285156 -0.789062 23.578125 2.03125 Z M 23.578125 2.03125" transform="translate(205.907 555.593)"/></g></g></g><g fill="#025B4B"><g><g><path d="M 23.671875 -1.53125 C 25.410156 1.113281 26.03125 3.859375 25.53125 6.703125 C 25.039062 9.546875 23.5625 11.78125 21.09375 13.40625 C 18.601562 15.050781 15.941406 15.539062 13.109375 14.875 C 10.273438 14.207031 7.988281 12.554688 6.25 9.921875 C 4.507812 7.285156 3.894531 4.546875 4.40625 1.703125 C 4.925781 -1.140625 6.441406 -3.390625 8.953125 -5.046875 C 11.429688 -6.671875 14.066406 -7.148438 16.859375 -6.484375 C 19.660156 -5.816406 21.929688 -4.164062 23.671875 -1.53125 Z M 20.0625 0.921875 C 19.175781 -0.421875 17.941406 -1.242188 16.359375 -1.546875 C 14.773438 -1.847656 13.265625 -1.523438 11.828125 -0.578125 C 10.398438 0.359375 9.507812 1.625 9.15625 3.21875 C 8.800781 4.8125 9.054688 6.265625 9.921875 7.578125 C 10.785156 8.898438 12.007812 9.695312 13.59375 9.96875 C 15.175781 10.238281 16.679688 9.898438 18.109375 8.953125 C 19.546875 8.015625 20.445312 6.769531 20.8125 5.21875 C 21.175781 3.664062 20.925781 2.234375 20.0625 0.921875 Z M 20.0625 0.921875" transform="translate(219.78 584.206)"/></g></g></g><g fill="#025B4B"><g><g><path d="M 16.75 17.859375 L 13.609375 14.515625 L 23.28125 5.421875 L 11.734375 9.515625 L 9.421875 7.046875 L 14.265625 -4.203125 L 4.578125 4.875 L 1.40625 1.5 L 16.328125 -12.484375 L 20.21875 -8.34375 L 15.125 4.015625 L 27.796875 -0.25 L 31.671875 3.875 Z M 16.75 17.859375" transform="translate(239.907 613.199)"/></g></g></g><g fill="#025B4B"><g><g><path d="M 5.609375 4.5625 L 1.59375 1.296875 L 14.46875 -14.578125 L 18.484375 -11.3125 Z M 5.609375 4.5625" transform="translate(266.802 639.895)"/></g></g></g><g fill="#025B4B"><g><g><path d="M 12.515625 -16.28125 L 19.984375 -11.640625 C 22.703125 -9.953125 24.421875 -7.769531 25.140625 -5.09375 C 25.859375 -2.425781 25.414062 0.195312 23.8125 2.78125 C 22.21875 5.34375 20.050781 6.890625 17.3125 7.421875 C 14.582031 7.953125 11.820312 7.347656 9.03125 5.609375 L 1.734375 1.078125 Z M 14.734375 -10.015625 L 8.328125 0.296875 L 11.484375 2.265625 C 12.835938 3.109375 14.242188 3.320312 15.703125 2.90625 C 17.160156 2.488281 18.363281 1.519531 19.3125 0 C 20.257812 -1.519531 20.578125 -3.039062 20.265625 -4.5625 C 19.953125 -6.09375 19.097656 -7.296875 17.703125 -8.171875 Z M 14.734375 -10.015625" transform="translate(282.938 652.61)"/></g></g></g><g fill="#025B4B"><g><g><path d="M 15.84375 2.578125 L 7.625 -0.875 L 4.796875 2.015625 L -0.125 -0.046875 L 15.921875 -15.484375 L 20.84375 -13.40625 L 20.859375 8.765625 L 15.75 6.625 Z M 15.96875 -1.625 L 16.21875 -9.75 L 10.546875 -3.921875 Z M 15.96875 -1.625" transform="translate(312.301 669.786)"/></g></g></g><g fill="#025B4B"><g><g><path d="M 5.375 -19.8125 L 14.140625 -18.359375 C 16.722656 -17.929688 18.617188 -16.984375 19.828125 -15.515625 C 21.046875 -14.054688 21.46875 -12.207031 21.09375 -9.96875 C 20.695312 -7.613281 19.679688 -5.898438 18.046875 -4.828125 C 16.410156 -3.765625 14.300781 -3.445312 11.71875 -3.875 L 8.078125 -4.484375 L 7.140625 1.1875 L 2.015625 0.34375 Z M 9.828125 -14.9375 L 8.75 -8.515625 L 12.15625 -7.953125 C 13.28125 -7.765625 14.195312 -7.894531 14.90625 -8.34375 C 15.613281 -8.800781 16.054688 -9.5625 16.234375 -10.625 C 16.410156 -11.644531 16.234375 -12.476562 15.703125 -13.125 C 15.179688 -13.769531 14.359375 -14.1875 13.234375 -14.375 Z M 9.828125 -14.9375" transform="translate(360.988 686.43)"/></g></g></g><g fill="#025B4B"><g><g><path d="M 15.65625 -3.5625 L 6.734375 -3.671875 L 5.203125 0.0625 L -0.140625 0 L 8.9375 -20.328125 L 14.28125 -20.25 L 22.625 0.296875 L 17.078125 0.21875 Z M 14.1875 -7.515625 L 11.375 -15.125 L 8.296875 -7.59375 Z M 14.1875 -7.515625" transform="translate(392.088 690.821)"/></g></g></g><g fill="#025B4B"><g><g><path d="M 14.21875 -2.03125 L 10.40625 -7.28125 L 10.25 -7.265625 L 6.34375 -6.703125 L 7.15625 -1.015625 L 2.03125 -0.296875 L -0.859375 -20.53125 L 8.171875 -21.8125 C 10.847656 -22.195312 13.003906 -21.878906 14.640625 -20.859375 C 16.285156 -19.835938 17.269531 -18.203125 17.59375 -15.953125 C 18.03125 -12.828125 17.117188 -10.488281 14.859375 -8.9375 L 20.046875 -2.859375 Z M 5.765625 -10.765625 L 9.671875 -11.328125 C 10.796875 -11.484375 11.625 -11.882812 12.15625 -12.53125 C 12.695312 -13.175781 12.890625 -14.03125 12.734375 -15.09375 C 12.585938 -16.125 12.164062 -16.863281 11.46875 -17.3125 C 10.78125 -17.757812 9.875 -17.90625 8.75 -17.75 L 4.84375 -17.1875 Z M 5.765625 -10.765625" transform="translate(426.148 690.322)"/></g></g></g><g fill="#025B4B"><g><g><path d="M 13.828125 -8.15625 L 5.296875 -5.546875 L 4.96875 -1.515625 L -0.140625 0.046875 L 2.3125 -22.078125 L 7.421875 -23.640625 L 21.640625 -6.609375 L 16.328125 -5 Z M 11.234375 -11.484375 L 6.21875 -17.859375 L 5.59375 -9.765625 Z M 11.234375 -11.484375" transform="translate(458.417 684.86)"/></g></g></g><g fill="#025B4B"><g><g><path d="M 7.140625 -22.90625 L 1.8125 -19.828125 L 9.953125 -5.765625 L 5.453125 -3.15625 L -2.6875 -17.21875 L -7.96875 -14.171875 L -10.078125 -17.8125 L 5.03125 -26.546875 Z M 7.140625 -22.90625" transform="translate(506.4 666.463)"/></g></g></g><g fill="#025B4B"><g><g><path d="M -3.6875 -23.421875 C -1.21875 -25.398438 1.453125 -26.273438 4.328125 -26.046875 C 7.203125 -25.816406 9.5625 -24.546875 11.40625 -22.234375 C 13.269531 -19.910156 14 -17.304688 13.59375 -14.421875 C 13.195312 -11.535156 11.765625 -9.109375 9.296875 -7.140625 C 6.835938 -5.171875 4.164062 -4.304688 1.28125 -4.546875 C -1.601562 -4.796875 -3.984375 -6.09375 -5.859375 -8.4375 C -7.703125 -10.757812 -8.414062 -13.34375 -8 -16.1875 C -7.59375 -19.039062 -6.15625 -21.453125 -3.6875 -23.421875 Z M -0.921875 -20.046875 C -2.179688 -19.046875 -2.890625 -17.742188 -3.046875 -16.140625 C -3.203125 -14.535156 -2.742188 -13.0625 -1.671875 -11.71875 C -0.597656 -10.382812 0.742188 -9.609375 2.359375 -9.390625 C 3.984375 -9.179688 5.410156 -9.570312 6.640625 -10.5625 C 7.878906 -11.550781 8.5625 -12.847656 8.6875 -14.453125 C 8.8125 -16.054688 8.335938 -17.523438 7.265625 -18.859375 C 6.191406 -20.203125 4.863281 -20.984375 3.28125 -21.203125 C 1.707031 -21.421875 0.304688 -21.035156 -0.921875 -20.046875 Z M -0.921875 -20.046875" transform="translate(531.486 651.187)"/></g></g></g><g fill="#025B4B"><g><g><path d="M -13.765625 -15.234375 L -7.875 -21.75 C -5.71875 -24.125 -3.257812 -25.421875 -0.5 -25.640625 C 2.25 -25.867188 4.742188 -24.96875 6.984375 -22.9375 C 9.222656 -20.90625 10.359375 -18.492188 10.390625 -15.703125 C 10.429688 -12.921875 9.34375 -10.3125 7.125 -7.875 L 1.375 -1.515625 Z M -7.203125 -16.28125 L 1.796875 -8.140625 L 4.28125 -10.890625 C 5.351562 -12.078125 5.816406 -13.421875 5.671875 -14.921875 C 5.523438 -16.429688 4.785156 -17.785156 3.453125 -18.984375 C 2.128906 -20.191406 0.691406 -20.78125 -0.859375 -20.75 C -2.421875 -20.71875 -3.757812 -20.085938 -4.875 -18.859375 Z M -7.203125 -16.28125" transform="translate(558.325 628.485)"/></g></g></g><g fill="#025B4B"><g><g><path d="M -10.90625 -21.0625 C -9.1875 -23.71875 -6.925781 -25.390625 -4.125 -26.078125 C -1.320312 -26.765625 1.320312 -26.304688 3.8125 -24.703125 C 6.3125 -23.078125 7.828125 -20.832031 8.359375 -17.96875 C 8.898438 -15.113281 8.3125 -12.363281 6.59375 -9.71875 C 4.875 -7.070312 2.601562 -5.410156 -0.21875 -4.734375 C -3.039062 -4.054688 -5.707031 -4.535156 -8.21875 -6.171875 C -10.707031 -7.785156 -12.207031 -10.007812 -12.71875 -12.84375 C -13.226562 -15.675781 -12.625 -18.414062 -10.90625 -21.0625 Z M -7.21875 -18.734375 C -8.09375 -17.390625 -8.347656 -15.929688 -7.984375 -14.359375 C -7.628906 -12.785156 -6.734375 -11.53125 -5.296875 -10.59375 C -3.859375 -9.664062 -2.335938 -9.359375 -0.734375 -9.671875 C 0.867188 -9.984375 2.097656 -10.800781 2.953125 -12.125 C 3.816406 -13.445312 4.054688 -14.890625 3.671875 -16.453125 C 3.285156 -18.015625 2.375 -19.257812 0.9375 -20.1875 C -0.5 -21.125 -2.003906 -21.445312 -3.578125 -21.15625 C -5.148438 -20.863281 -6.363281 -20.054688 -7.21875 -18.734375 Z M -7.21875 -18.734375" transform="translate(580.514 602.655)"/></g></g></g><g fill="#025B4B"><g><g><path d="M -14.78125 -17.515625 C -13.519531 -20.304688 -11.722656 -22.441406 -9.390625 -23.921875 L -6.484375 -20.46875 C -7.492188 -19.757812 -8.429688 -18.925781 -9.296875 -17.96875 C -10.171875 -17.007812 -10.78125 -16.148438 -11.125 -15.390625 C -11.75 -14.015625 -11.601562 -13.125 -10.6875 -12.71875 C -10.113281 -12.457031 -9.492188 -12.582031 -8.828125 -13.09375 C -8.160156 -13.613281 -7.476562 -14.300781 -6.78125 -15.15625 C -6.09375 -16.007812 -5.347656 -16.835938 -4.546875 -17.640625 C -3.742188 -18.441406 -2.78125 -18.992188 -1.65625 -19.296875 C -0.539062 -19.597656 0.628906 -19.472656 1.859375 -18.921875 C 3.660156 -18.109375 4.742188 -16.769531 5.109375 -14.90625 C 5.472656 -13.050781 5.171875 -11.046875 4.203125 -8.890625 C 3.503906 -7.347656 2.546875 -5.941406 1.328125 -4.671875 C 0.117188 -3.410156 -1.191406 -2.425781 -2.609375 -1.71875 L -5.4375 -5.21875 C -4.1875 -5.78125 -3.015625 -6.582031 -1.921875 -7.625 C -0.828125 -8.664062 -0.0546875 -9.679688 0.390625 -10.671875 C 0.734375 -11.441406 0.863281 -12.097656 0.78125 -12.640625 C 0.695312 -13.191406 0.390625 -13.585938 -0.140625 -13.828125 C -0.648438 -14.054688 -1.1875 -14.003906 -1.75 -13.671875 C -2.320312 -13.335938 -2.851562 -12.847656 -3.34375 -12.203125 C -3.84375 -11.554688 -4.425781 -10.867188 -5.09375 -10.140625 C -5.757812 -9.410156 -6.425781 -8.757812 -7.09375 -8.1875 C -7.757812 -7.613281 -8.570312 -7.25 -9.53125 -7.09375 C -10.488281 -6.9375 -11.476562 -7.085938 -12.5 -7.546875 C -14.207031 -8.316406 -15.265625 -9.613281 -15.671875 -11.4375 C -16.078125 -13.257812 -15.78125 -15.285156 -14.78125 -17.515625 Z M -14.78125 -17.515625" transform="translate(598.685 572.691)"/></g></g></g><g fill="#025B4B"><g><g><path d="M 16.109375 -14.609375 L 6.46875 -14.609375 L 6.46875 -10.984375 L 15.171875 -10.984375 L 15.171875 -7.328125 L 6.46875 -7.328125 L 6.46875 -3.65625 L 16.40625 -3.65625 L 16.40625 0 L 1.828125 0 L 1.828125 -18.25 L 16.109375 -18.25 Z M 16.109375 -14.609375" transform="translate(314.775 616.037)"/></g></g></g><g fill="#025B4B"><g><g><path d="M 8.84375 -18.46875 C 11.570312 -18.46875 13.96875 -17.785156 16.03125 -16.421875 L 14.296875 -12.796875 C 13.335938 -13.359375 12.3125 -13.816406 11.21875 -14.171875 C 10.125 -14.523438 9.203125 -14.703125 8.453125 -14.703125 C 7.109375 -14.703125 6.4375 -14.257812 6.4375 -13.375 C 6.4375 -12.800781 6.765625 -12.335938 7.421875 -11.984375 C 8.085938 -11.640625 8.894531 -11.34375 9.84375 -11.09375 C 10.789062 -10.84375 11.738281 -10.539062 12.6875 -10.1875 C 13.632812 -9.832031 14.4375 -9.253906 15.09375 -8.453125 C 15.757812 -7.648438 16.09375 -6.640625 16.09375 -5.421875 C 16.09375 -3.671875 15.40625 -2.300781 14.03125 -1.3125 C 12.65625 -0.332031 10.90625 0.15625 8.78125 0.15625 C 7.269531 0.15625 5.773438 -0.101562 4.296875 -0.625 C 2.828125 -1.144531 1.539062 -1.859375 0.4375 -2.765625 L 2.25 -6.34375 C 3.164062 -5.539062 4.25 -4.878906 5.5 -4.359375 C 6.75 -3.847656 7.863281 -3.59375 8.84375 -3.59375 C 9.59375 -3.59375 10.175781 -3.726562 10.59375 -4 C 11.007812 -4.269531 11.21875 -4.664062 11.21875 -5.1875 C 11.21875 -5.695312 10.976562 -6.117188 10.5 -6.453125 C 10.019531 -6.796875 9.421875 -7.046875 8.703125 -7.203125 C 7.992188 -7.367188 7.222656 -7.59375 6.390625 -7.875 C 5.554688 -8.15625 4.78125 -8.457031 4.0625 -8.78125 C 3.351562 -9.113281 2.757812 -9.640625 2.28125 -10.359375 C 1.800781 -11.085938 1.5625 -11.953125 1.5625 -12.953125 C 1.5625 -14.628906 2.222656 -15.96875 3.546875 -16.96875 C 4.878906 -17.96875 6.644531 -18.46875 8.84375 -18.46875 Z M 8.84375 -18.46875" transform="translate(337.203 616.037)"/></g></g></g><g fill="#025B4B"><g><g><path d="M 15.78125 -14.53125 L 10.28125 -14.53125 L 10.28125 0 L 5.640625 0 L 5.640625 -14.53125 L 0.1875 -14.53125 L 0.1875 -18.28125 L 15.78125 -18.28125 Z M 15.78125 -14.53125" transform="translate(358.849 616.037)"/></g></g></g><g fill="#025B4B"><g><g><path d="M 1.828125 -18.25 L 9.671875 -18.25 C 12.546875 -18.25 14.878906 -17.40625 16.671875 -15.71875 C 18.472656 -14.039062 19.375 -11.84375 19.375 -9.125 C 19.375 -6.425781 18.460938 -4.226562 16.640625 -2.53125 C 14.816406 -0.84375 12.4375 0 9.5 0 L 1.828125 0 Z M 6.46875 -14.546875 L 6.46875 -3.703125 L 9.78125 -3.703125 C 11.207031 -3.703125 12.375 -4.203125 13.28125 -5.203125 C 14.195312 -6.203125 14.65625 -7.5 14.65625 -9.09375 C 14.65625 -10.695312 14.175781 -12.003906 13.21875 -13.015625 C 12.257812 -14.035156 11.046875 -14.546875 9.578125 -14.546875 Z M 6.46875 -14.546875" transform="translate(379.634 616.037)"/></g></g></g><g fill="#025B4B"><g><g><path d="M 7.984375 -18.46875 C 9.804688 -18.46875 11.300781 -18.023438 12.46875 -17.140625 C 13.632812 -16.265625 14.21875 -15.113281 14.21875 -13.6875 C 14.21875 -11.988281 13.066406 -9.960938 10.765625 -7.609375 L 7.0625 -3.671875 L 14.765625 -3.671875 L 14.765625 0 L 1.09375 0 L 1.09375 -3 L 7.609375 -9.90625 C 8.773438 -11.125 9.359375 -12.171875 9.359375 -13.046875 C 9.359375 -13.566406 9.175781 -13.972656 8.8125 -14.265625 C 8.445312 -14.554688 7.941406 -14.703125 7.296875 -14.703125 C 5.785156 -14.703125 4.128906 -13.929688 2.328125 -12.390625 L 0.578125 -15.71875 C 3.003906 -17.550781 5.472656 -18.46875 7.984375 -18.46875 Z M 7.984375 -18.46875" transform="translate(415.388 616.037)"/></g></g></g><g fill="#025B4B"><g><g><path d="M 9.171875 -18.40625 C 11.765625 -18.40625 13.753906 -17.601562 15.140625 -16 C 16.535156 -14.40625 17.234375 -12.125 17.234375 -9.15625 C 17.234375 -6.164062 16.535156 -3.867188 15.140625 -2.265625 C 13.753906 -0.671875 11.765625 0.125 9.171875 0.125 C 6.566406 0.125 4.5625 -0.671875 3.15625 -2.265625 C 1.757812 -3.867188 1.0625 -6.164062 1.0625 -9.15625 C 1.0625 -12.125 1.757812 -14.40625 3.15625 -16 C 4.5625 -17.601562 6.566406 -18.40625 9.171875 -18.40625 Z M 9.171875 -15.015625 C 7.992188 -15.015625 7.144531 -14.554688 6.625 -13.640625 C 6.101562 -12.734375 5.84375 -11.238281 5.84375 -9.15625 C 5.84375 -7.070312 6.101562 -5.566406 6.625 -4.640625 C 7.144531 -3.722656 7.992188 -3.265625 9.171875 -3.265625 C 10.328125 -3.265625 11.164062 -3.726562 11.6875 -4.65625 C 12.21875 -5.582031 12.484375 -7.078125 12.484375 -9.140625 C 12.484375 -11.210938 12.21875 -12.707031 11.6875 -13.625 C 11.164062 -14.550781 10.328125 -15.015625 9.171875 -15.015625 Z M 9.171875 -15.015625" transform="translate(435.886 616.037)"/></g></g></g><g fill="#025B4B"><g><g><path d="M 7.984375 -18.46875 C 9.804688 -18.46875 11.300781 -18.023438 12.46875 -17.140625 C 13.632812 -16.265625 14.21875 -15.113281 14.21875 -13.6875 C 14.21875 -11.988281 13.066406 -9.960938 10.765625 -7.609375 L 7.0625 -3.671875 L 14.765625 -3.671875 L 14.765625 0 L 1.09375 0 L 1.09375 -3 L 7.609375 -9.90625 C 8.773438 -11.125 9.359375 -12.171875 9.359375 -13.046875 C 9.359375 -13.566406 9.175781 -13.972656 8.8125 -14.265625 C 8.445312 -14.554688 7.941406 -14.703125 7.296875 -14.703125 C 5.785156 -14.703125 4.128906 -13.929688 2.328125 -12.390625 L 0.578125 -15.71875 C 3.003906 -17.550781 5.472656 -18.46875 7.984375 -18.46875 Z M 7.984375 -18.46875" transform="translate(459.07 616.037)"/></g></g></g><g fill="#025B4B"><g><g><path d="M 7.984375 -18.46875 C 9.804688 -18.46875 11.300781 -18.023438 12.46875 -17.140625 C 13.632812 -16.265625 14.21875 -15.113281 14.21875 -13.6875 C 14.21875 -11.988281 13.066406 -9.960938 10.765625 -7.609375 L 7.0625 -3.671875 L 14.765625 -3.671875 L 14.765625 0 L 1.09375 0 L 1.09375 -3 L 7.609375 -9.90625 C 8.773438 -11.125 9.359375 -12.171875 9.359375 -13.046875 C 9.359375 -13.566406 9.175781 -13.972656 8.8125 -14.265625 C 8.445312 -14.554688 7.941406 -14.703125 7.296875 -14.703125 C 5.785156 -14.703125 4.128906 -13.929688 2.328125 -12.390625 L 0.578125 -15.71875 C 3.003906 -17.550781 5.472656 -18.46875 7.984375 -18.46875 Z M 7.984375 -18.46875" transform="translate(479.569 616.037)"/></g></g></g></svg>